<svg width="120.000000" height="21.955078" viewBox="0 0 120 21.9551" fill="none" xmlns="http://www.w3.org/2000/svg" xmlns:xlink="http://www.w3.org/1999/xlink">
	<desc>
			Created with Pixso.
	</desc>
	<defs/>
	<path id="Vector" d="M0 0L8.79 0C10.47 0 11.73 0.41 12.66 1.1C13.68 1.94 14.24 3.14 14.24 4.62C14.24 6.33 13.54 7.39 12.14 8.04L12.14 8.13C14.01 8.73 15.08 10.39 15.08 12.38C15.08 14.28 14.33 15.76 13.12 16.68C12.1 17.42 10.79 17.74 9.03 17.74L0 17.74L0 0ZM7.91 6.93C8.84 6.93 9.54 6.42 9.54 5.36C9.54 4.34 8.84 3.83 7.86 3.83L4.84 3.83L4.84 6.88L7.91 6.88L7.91 6.93ZM8.33 13.81C9.4 13.81 10.19 13.17 10.19 12.01C10.19 10.76 9.35 10.21 8.33 10.21L4.88 10.21L4.88 13.86L8.33 13.86L8.33 13.81Z" fill="#000000" fill-opacity="1.000000" fill-rule="nonzero"/>
	<path id="Vector" d="M15.87 0L20.48 0L20.48 17.79L15.87 17.79L15.87 0Z" fill="#000000" fill-opacity="1.000000" fill-rule="nonzero"/>
	<path id="Vector" d="M21.41 11.46C21.41 7.44 24.01 4.76 28.06 4.76C32.11 4.76 34.67 7.48 34.67 11.46C34.67 15.48 32.11 18.16 28.06 18.16C24.01 18.16 21.41 15.48 21.41 11.46ZM30.06 11.46C30.06 9.24 29.37 7.85 27.97 7.85C26.57 7.85 25.92 9.24 25.92 11.46C25.92 13.68 26.57 15.11 27.97 15.11C29.37 15.06 30.06 13.68 30.06 11.46Z" fill="#000000" fill-opacity="1.000000" fill-rule="nonzero"/>
	<path id="Vector" d="M35.19 11.46C35.19 7.44 37.79 4.76 41.84 4.76C45.89 4.76 48.4 7.44 48.4 11.46C48.4 15.48 45.84 18.16 41.79 18.16C37.79 18.16 35.19 15.48 35.19 11.46ZM43.84 11.46C43.84 9.24 43.14 7.85 41.75 7.85C40.35 7.85 39.7 9.24 39.7 11.46C39.7 13.68 40.35 15.11 41.75 15.11C43.14 15.06 43.84 13.68 43.84 11.46Z" fill="#000000" fill-opacity="1.000000" fill-rule="nonzero"/>
	<path id="Vector" d="M49.34 5.08L53.62 5.08L53.62 6.97L53.71 6.97C54.55 5.5 55.71 4.71 57.57 4.71C59.2 4.71 60.41 5.5 61.02 6.88L61.11 6.88C62.14 5.22 63.49 4.71 65.07 4.71C68.05 4.71 69.3 6.88 69.3 9.79L69.3 17.74L64.84 17.74L64.84 10.58C64.84 9.29 64.42 8.45 63.3 8.45C62.18 8.45 61.62 9.47 61.62 10.86L61.62 17.74L57.16 17.74L57.16 10.58C57.16 9.29 56.74 8.45 55.62 8.45C54.5 8.45 53.94 9.47 53.94 10.86L53.94 17.74L49.34 17.74L49.34 5.08Z" fill="#000000" fill-opacity="1.000000" fill-rule="nonzero"/>
	<path id="Vector" d="M74.94 16.08L74.89 16.08L74.89 17.74L70.61 17.74L70.61 0L75.08 0L75.08 6.37L75.17 6.37C76.01 5.26 77.17 4.66 78.8 4.66C82.01 4.66 83.87 7.53 83.87 11.36C83.87 15.66 81.87 18.16 78.52 18.16C77.12 18.16 75.68 17.51 74.94 16.08ZM79.27 11.32C79.27 9.29 78.52 7.94 77.17 7.94C75.77 7.94 74.94 9.29 74.94 11.32C74.94 13.35 75.82 14.69 77.17 14.69C78.52 14.69 79.27 13.4 79.27 11.32Z" fill="#000000" fill-opacity="1.000000" fill-rule="nonzero"/>
	<path id="Vector" d="M84.39 11.41C84.39 7.44 87.04 4.71 90.86 4.71C92.76 4.71 94.21 5.31 95.32 6.37C96.81 7.81 97.47 10.02 97.42 12.61L88.85 12.61C89.04 14.18 89.79 15.02 91.14 15.02C91.93 15.02 92.62 14.65 92.9 13.81L97.23 13.81C96.49 16.73 94.21 18.16 91 18.16C87.04 18.11 84.39 15.43 84.39 11.41ZM88.85 10.07L92.95 10.07C92.86 8.55 92.02 7.76 90.95 7.76C89.69 7.71 88.99 8.59 88.85 10.07Z" fill="#000000" fill-opacity="1.000000" fill-rule="nonzero"/>
	<path id="Vector" d="M102.49 7.25L102.59 7.25C103.52 5.5 104.73 4.8 106.26 4.8C106.64 4.8 106.87 4.85 107.01 4.94L107.01 8.82L106.92 8.82C104.26 8.36 102.73 9.61 102.73 12.47L102.73 17.79L98.21 17.79L98.21 5.08L102.49 5.08L102.49 7.25Z" fill="#000000" fill-opacity="1.000000" fill-rule="nonzero"/>
	<path id="Vector" d="M107.47 17.79L111.8 17.79C111.99 18.34 112.55 18.85 113.62 18.85C115.06 18.85 115.57 17.97 115.57 16.63L115.57 15.71L115.48 15.71C114.78 16.54 113.8 17.14 112.41 17.14C109.66 17.14 107.24 15.11 107.24 11.13C107.24 7.48 109.2 4.66 112.18 4.66C113.9 4.66 114.92 5.36 115.62 6.42L115.71 6.42L115.71 5.03L120 5.03L120 16.03C120 18.07 119.3 19.64 118.23 20.56C117.11 21.53 115.53 21.95 113.71 21.95C110.27 22 107.89 20.61 107.47 17.79ZM115.76 10.95C115.76 9.38 115.01 8.08 113.71 8.08C112.45 8.08 111.66 9.19 111.66 10.95C111.66 12.66 112.45 13.86 113.71 13.86C114.97 13.86 115.76 12.61 115.76 10.95Z" fill="#000000" fill-opacity="1.000000" fill-rule="nonzero"/>
</svg>
