<svg width="120.000000" height="64.000000" viewBox="0 0 120 64" fill="none" xmlns="http://www.w3.org/2000/svg" xmlns:xlink="http://www.w3.org/1999/xlink">
	<desc>
			Created with Pixso.
	</desc>
	<defs/>
	<path id="Vector" d="M25.5 6.6L24.1 11.57L22.68 6.83L24.1 1.51L25.5 6.6L25.5 6.6ZM33.96 18.67C33.88 22.05 33.14 25.44 32.11 25.44C31.15 25.44 30.56 23.41 30.23 21.03L30.11 21.31L30.11 44.6L31.98 48.51L33.01 44.83L33.17 45.33L30.72 54.21L27.3 47.01L27.3 46.78C27.65 46.39 27.8 45.16 27.8 43.2L27.8 25.15C29.25 22.53 30.81 19.13 31.77 16.72C31.95 17.78 32.38 19.12 32.92 19.12C33.38 19.12 33.73 18.76 33.91 18.34L33.97 18.67L33.96 18.67ZM27.01 46.84L24.96 54.28C23.81 52.89 23.15 50.93 23.15 45.9L23.15 23.98L22.52 22.42L21.95 24.48L21.8 23.98L23.81 16.73L25.95 21.64L25.95 21.76C25.62 22.45 25.46 23.05 25.46 25.44L25.46 45C25.46 46.64 25.76 48.28 26.27 48.52L26.88 46.34L27.02 46.86L27.01 46.84ZM22.23 47.07L20.2 54.28C19.12 53.17 18.41 50.81 18.41 46.18L18.41 25.54L17.12 22.47L16.4 25.1L16.4 47.56L17.15 49.18L15.47 54.27L13.56 48.74L13.56 48.62C13.88 48.31 14.07 47.39 14.07 44.77L14.07 6.54C14.07 3.74 13.93 2.91 13.77 1.95L13.88 1.79C14.23 2.86 14.46 3.75 14.54 5.64L14.57 5.64C15.09 2.64 15.73 0.67 16.98 0.11L17.01 0.33C16.67 1.81 16.4 3.43 16.4 5.92L16.4 24.03L18.39 16.71C19.12 18.43 20.47 21.86 21.27 23.53L21.27 23.7C20.99 24.11 20.77 24.86 20.77 27.33L20.77 44.27C20.77 46.74 20.95 47.62 21.52 48.62L22.1 46.55L22.24 47.05L22.23 47.07ZM58.51 23.72C58.19 24.23 58.01 24.89 58.01 27.58L58.01 45.63C57.06 47.07 54.9 51.32 53.81 54.34C52.64 51.61 52.03 50.11 50.82 47.47L50.82 47.3C51.16 46.75 51.32 46.14 51.32 43.34L51.32 25.44C52.79 22.98 54.37 19.52 55.49 16.67C56.21 18.32 57.69 21.7 58.51 23.54L58.51 23.71L58.51 23.72ZM55.67 49.08L55.67 25.94C55.12 24.77 54.24 22.42 53.87 21.47L53.65 21.92L53.65 45.17C53.92 45.84 54.83 48.01 55.39 49.52L55.67 49.07L55.67 49.08ZM50.11 51.64C50.11 53.82 49.24 56.12 48.28 58.8C47.03 62.32 46.39 64 46.39 64C45.77 62.78 45.42 62.43 44.5 62.43C43.34 62.43 42.68 62.86 41.87 64L41.82 63.94C42.48 59.67 43.79 56.12 45.62 56.12C46.44 56.12 47.36 57.3 47.96 58.7C48.12 58.35 48.62 57.04 48.62 56.07C48.62 53.22 47.08 53.55 46.85 48.24L45.14 54.32C43.13 49.77 41.98 47.28 41.98 47.28L41.98 47.06C42.38 46.47 42.47 45.78 42.47 42.31L42.47 25.43C44.17 22.31 45.74 19.19 46.7 16.66L49.68 23.53L49.68 23.7C49.31 24.36 49.18 24.92 49.18 28L49.18 43.98C49.18 47.8 50.11 48.16 50.11 51.63L50.11 51.64ZM46.82 47.23L46.82 25.72C45.92 23.79 45.04 21.37 45.04 21.37L44.8 21.88L44.8 44.91L46.42 48.78L46.83 47.27L46.82 47.23ZM41.54 47.06L39.51 54.27C38.58 53.21 37.8 51.52 37.73 47.01L35.43 54.28C34.31 52.6 33.51 49.08 33.51 44.62C33.51 38.64 34.9 35.54 36.17 33.94L36.17 33.89C35.08 32.03 34.17 28.53 33.93 24.28L37.46 16.69L40.62 24.07L40.62 24.25C40.24 24.82 40.07 25.48 40.07 28L40.07 44.35C40.07 46.18 40.3 48.14 40.83 48.65L41.41 46.58L41.56 47.09L41.54 47.06ZM37.73 32.65L37.73 25.99L35.74 21.24L35.49 21.81C35.57 25.75 35.72 30.91 36.48 33.55C36.76 33.21 37.4 32.79 37.73 32.65L37.73 32.65ZM37.73 45.95L37.73 33.38C36.33 33.95 35.54 37.4 35.54 41.71C35.54 45.29 35.92 47.47 36.84 48.75L37.73 45.96L37.73 45.95ZM13.42 1.85C13.36 6.72 12.38 11.24 10.63 11.24C10.41 11.24 10.21 11.18 10.02 11.02L10.02 49.46C11.14 48.97 12.16 47.28 13.1 44.99L13.18 45.83C12.14 50.04 10.18 56.94 7.15 56.94C3.02 56.94 0 47.18 0 30.51C-0.01 15.23 3.61 6.74 5.96 3.58L6.15 3.92C3.94 9.03 2.75 15.22 2.75 25.99C2.75 35.49 3.73 42.25 5.21 46.21L5.7 45.04L5.7 15.54C5.7 12.83 5.59 11.9 5.22 11.57L5.22 11.34C6.7 8.78 9.04 4.37 10.34 0.79C10.74 2.42 11.24 3.14 11.86 3.14C12.54 3.14 13 2.3 13.31 1.52L13.42 1.85L13.42 1.85ZM9.76 49.58L9.76 10.74C9.18 9.96 8.77 8.36 8.4 6.49L8.32 6.6L8.32 40.02L5.4 46.78C6.4 49.2 7.85 49.63 9.34 49.63C9.49 49.63 9.62 49.62 9.76 49.58L9.76 49.58ZM112.74 47.22L110.72 54.42C109.42 52.97 108.92 50.34 108.92 46.27L108.92 25.37L107.84 22.68L106.9 26.09L106.9 47.66L107.66 49.34L105.97 54.42L104.08 48.95L104.08 48.78C104.48 48.11 104.58 47.41 104.58 44.87L104.58 26.31C104.58 24.25 104.28 22.74 103.73 22.52L103.12 24.69L102.96 24.13L105.01 16.81C106.22 17.87 106.91 20.63 106.91 24.86L109.12 16.81C109.86 18.71 110.93 21.34 111.72 23.01L111.72 23.17C111.39 23.62 111.27 24.52 111.27 26.86L111.27 44.52C111.27 46.96 111.51 47.93 112.03 48.77L112.61 46.7L112.75 47.2L112.74 47.22ZM103.42 47.27L101.44 54.42C100.46 53.81 99.61 50.57 99.61 47.1L97.27 54.42C96.36 52.23 95.53 50.23 94.74 48.61L94.74 48.44C95.17 47.64 95.25 47.19 95.25 44.36L95.25 26.04C95.25 24.09 94.98 23.02 94.53 22.46L93.97 24.47L93.82 23.96L95.79 16.8C96.77 17.97 97.59 20.6 97.59 24.84L97.59 46.27L98.7 48.89L99.61 45.98L99.61 23.58L98.94 21.96L100.56 16.81L102.43 22.11L102.43 22.21C102.08 22.79 101.95 23.44 101.95 25.73L101.95 43.9C101.95 46.74 102.07 47.8 102.74 48.76L103.27 46.74L103.43 47.24L103.42 47.27ZM83.99 6.76L82.59 11.73L81.16 6.98L82.59 1.67L83.99 6.75L83.99 6.76ZM85.5 46.98L83.44 54.42C82.29 53.02 81.63 51.06 81.63 46.04L81.63 24.14L81 22.57L80.42 24.64L80.28 24.13L82.29 16.87L84.42 21.79L84.42 21.9C84.09 22.59 83.94 23.08 83.94 24.75L83.94 45.15C83.94 46.79 84.24 48.42 84.74 48.67L85.35 46.49L85.5 46.99L85.5 46.98Z" fill="#000000" fill-opacity="1.000000" fill-rule="nonzero"/>
	<path id="Vector" d="M80.49 19.16C80.38 21.96 79.77 25.7 78.71 25.7C78.03 25.7 77.54 24.36 77.26 22.85L77.09 23.47C77.1 23.79 77.1 24.47 77.1 24.81L77.1 45.26L78.87 48.72L79.47 46.6L79.63 47.1L77.55 54.48L74.34 47.39L74.34 47.22C74.71 46.66 74.82 45.92 74.82 43.98L74.82 26.93C74.82 24.08 74.64 22.79 73.98 22.35L73.36 24.58L73.2 24.08L75.24 16.81C76.24 17.75 76.88 19.77 77.05 22.62L78.63 16.86C78.93 18.26 79.3 19.32 79.73 19.32C80.02 19.32 80.23 19.16 80.44 18.82L80.5 19.16L80.49 19.16Z" fill="#000000" fill-opacity="1.000000" fill-rule="nonzero"/>
	<path id="Vector" d="M74.43 1.56C74.2 7.74 73.47 13.24 71.59 13.24C71.37 13.24 71.03 13.13 70.89 13.07L70.89 49.73C72.02 49.17 73.33 47.25 73.89 45.71L73.97 46.43C73.11 50.72 70.74 57.28 67.81 57.28C64.1 57.28 61.23 48.78 61.23 35.04C61.23 23.22 64.03 14.68 65.87 12.41L66.03 12.64C64.75 16.7 63.84 22.23 63.84 30.92C63.84 38.18 64.65 42.71 65.88 46.24L66.57 45.01L66.57 22.74C66.57 20.34 66.35 19.56 66.09 19.39L66.09 19.17L69.19 13.48L69.19 41.3L66.07 46.78C66.91 49.02 68.24 50.2 69.51 50.2C69.94 50.2 70.14 50.13 70.63 49.86L70.63 13.08C68.32 12.41 65.86 9 63.97 9C62.65 9 61.65 10.89 61.65 14.41C61.65 16.54 62.13 17.45 62.43 17.93L62.18 18.44C61.61 17.54 60.91 15.41 60.91 10.89C60.91 4.31 62.43 0 64.47 0C67.29 0 69.95 5.19 72.44 5.19C73.21 5.19 73.93 3.77 74.29 1.17L74.43 1.57L74.43 1.56ZM119.99 27.49C118.65 30.34 117.06 34 115.85 37.04L115.85 44.93L117.82 48.72L118.91 44.81L119.06 45.26L116.51 54.42L112.98 46.94L112.98 46.77C113.33 46.43 113.53 45.65 113.53 42.86L113.53 25.53C114.96 23.3 116.46 19.61 117.56 16.76L120 27.49L119.99 27.49ZM117.84 31.34C117.51 29.71 116.44 24.21 115.98 21.68L115.85 21.96L115.85 35.98L117.84 31.34L117.84 31.34ZM93.53 23.86C93.14 24.43 93.05 25.46 93.05 27.27L93.05 45.82C92.08 47.26 89.92 51.36 88.83 54.43C88.06 52.55 86.83 49.6 85.83 47.55L85.83 47.39C86.26 46.77 86.36 45.91 86.36 42.86L86.36 6.92C86.36 4.41 86.23 3.12 86.07 2.12L86.17 1.95C86.51 2.96 86.73 4.13 86.83 5.75L86.86 5.75C87.38 2.75 88.02 0.83 89.26 0.27L89.28 0.61C88.93 2.08 88.69 3.43 88.69 6.31L88.69 24.13L90.68 16.81C91.37 18.55 92.77 22.04 93.53 23.69L93.53 23.85L93.53 23.86ZM90.71 49.17L90.71 25.7L89.41 22.63L88.69 25.19L88.69 45.09L90.47 49.61L90.71 49.17L90.71 49.17Z" fill="#000000" fill-opacity="1.000000" fill-rule="nonzero"/>
</svg>
