<svg width="119.958252" height="61.958008" viewBox="0 0 119.958 61.958" fill="none" xmlns="http://www.w3.org/2000/svg" xmlns:xlink="http://www.w3.org/1999/xlink">
	<desc>
			Created with Pixso.
	</desc>
	<defs/>
	<path id="Fill-1" d="M20.05 33.25L20.05 31.54C20.05 29.7 19.3 29.11 18.42 29.41C17.09 29.83 16.63 30.74 16.63 32.37L16.63 43.49C16.63 45.12 17.05 45.78 18.42 45.37C19.63 44.99 20.05 44.07 20.05 42.65L20.05 40.02L23.39 38.97L23.39 41.48C23.39 44.57 21.76 47.58 18.42 48.63C14.92 49.71 13.3 47.71 13.3 44.61L13.3 33.33C13.3 30.24 14.92 27.23 18.42 26.15C21.76 25.1 23.39 27.32 23.39 30.62L23.39 32.25L20.05 33.25Z" fill="#FFFFFF" fill-opacity="1.000000" fill-rule="nonzero"/>
	<path id="Fill-2" d="M29.97 22.85L33.31 21.8L33.31 38.31C33.31 39.94 33.89 40.52 35.1 40.14C36.31 39.77 36.9 38.81 36.9 37.18L36.9 20.68L40.23 19.63L40.23 36.01C40.23 39.77 38.27 42.44 35.1 43.4C31.93 44.36 29.97 42.94 29.97 39.18L29.97 22.85Z" fill="#FFFFFF" fill-opacity="1.000000" fill-rule="nonzero"/>
	<path id="Fill-3" d="M50.2 26.36L51.36 25.98C53.16 25.44 53.82 24.44 53.82 21.85C53.82 19.26 53.16 18.71 51.36 19.26L50.2 19.63L50.2 26.36ZM50.2 38.43L46.86 39.48L46.86 17.58L51.53 16.12C55.28 14.95 57.16 16.16 57.16 20.8C57.16 24.31 55.95 26.11 54.82 27.07L57.66 36.09L54.24 37.14L51.86 28.82C51.45 29.03 50.74 29.24 50.15 29.45L50.2 38.43Z" fill="#FFFFFF" fill-opacity="1.000000" fill-rule="nonzero"/>
	<path id="Fill-4" d="M67.29 34.55L68.67 34.96C70.46 35.51 71.09 34.59 71.09 32.37C71.09 30.12 70.34 28.78 68.33 28.15L67.25 27.82L67.29 34.55ZM67.29 24.73L68.5 25.1C69.79 25.48 70.75 24.85 70.75 23.02C70.75 21.01 70.04 19.71 68.58 19.25L67.29 18.88L67.29 24.73ZM63.96 14.7L68.92 16.25C72.5 17.37 74.09 19.92 74.09 23.64C74.09 25.52 73.38 27.28 71.79 27.49C73.5 28.86 74.51 30.7 74.51 33.5C74.51 37.09 73.09 39.39 69.29 38.18L64 36.51L63.96 14.7Z" fill="#FFFFFF" fill-opacity="1.000000" fill-rule="nonzero"/>
	<path id="Fill-5" d="M80.84 41.9L80.84 20.01L89.77 22.81L89.77 26.07L84.18 24.31L84.18 29.95L88.47 31.29L88.47 34.55L84.18 33.21L84.18 39.64L90.14 41.52L90.14 44.78L80.84 41.9Z" fill="#FFFFFF" fill-opacity="1.000000" fill-rule="nonzero"/>
	<path id="Fill-6" d="M99.77 44.74L100.94 45.12C102.73 45.66 103.36 45.12 103.36 42.82L103.36 33.25C103.36 30.95 102.73 29.99 100.94 29.45L99.77 29.07L99.77 44.74ZM96.44 24.9L101.4 26.44C104.82 27.53 106.69 30.2 106.69 34.71L106.69 43.36C106.69 47.83 104.86 49.42 101.4 48.33L96.44 46.79L96.44 24.9Z" fill="#FFFFFF" fill-opacity="1.000000" fill-rule="nonzero"/>
	<path id="Fill-7" d="M60 0L59.08 0.29L2.16 18.09L0 18.75L0 61.95L119.95 61.95L119.95 18.75L117.79 18.09L60.91 0.29L60 0ZM60 3.25L116.91 21.05L116.91 58.9L3.12 58.9L3.12 21.01L60 3.25Z" fill="#FFFFFF" fill-opacity="1.000000" fill-rule="nonzero"/>
</svg>
