<svg width="120.035583" height="30.986328" viewBox="0 0 120.036 30.9863" fill="none" xmlns="http://www.w3.org/2000/svg" xmlns:xlink="http://www.w3.org/1999/xlink">
	<desc>
			Created with Pixso.
	</desc>
	<defs/>
	<path id="Vector" d="M11.58 2.88L14.21 2.88C15.81 2.65 17.45 2.86 18.94 3.47C20.81 4.58 22.17 6.37 22.72 8.46C23.11 9.55 23.11 9.55 24.06 9.16L24.8 9.16L24.8 0.52L0.05 0.52L0.05 2.04L1.07 2.04C1.51 2.04 1.94 2.13 2.34 2.32C2.74 2.5 3.09 2.77 3.37 3.11C4.32 4.61 4.48 6.3 4.48 15.05C4.48 24.35 4.27 26.63 3.37 27.79C3.15 28.09 2.86 28.33 2.53 28.5C2.2 28.68 1.83 28.77 1.46 28.79C0.05 29.04 0.05 29.02 0.05 29.63C-0.02 29.84 -0.02 30.06 0.05 30.27L15.66 30.27C15.77 30.07 15.82 29.84 15.82 29.62C15.82 29.39 15.77 29.17 15.66 28.97C15.29 28.87 14.9 28.79 14.51 28.74C14.09 28.69 13.67 28.61 13.27 28.49C12.68 28.07 12.22 27.51 11.93 26.86C11.63 26.21 11.51 25.5 11.58 24.79C11.35 23.29 11.24 20.53 11.24 18.26L11.24 16.46L12.16 16.46C13.31 16.43 14.46 16.55 15.57 16.83C16.11 17.15 16.56 17.59 16.9 18.11C17.25 18.63 17.47 19.21 17.56 19.83L17.76 20.53L19.17 20.53L19.17 10.46L17.88 10.46L17.67 11.44C17.58 12.06 17.35 12.66 16.98 13.18C16.62 13.7 16.14 14.13 15.57 14.44C15.03 14.6 14.45 14.64 13.89 14.55L11.24 14.55L11.24 12.09C11.24 9.55 11.38 4.18 11.47 3.34L11.58 2.88ZM119.5 20.92C118.41 19.19 116.71 17.92 114.73 17.35C113.21 16.88 111.8 16.11 110.6 15.07C110.33 14.82 110.13 14.5 110.01 14.14C109.89 13.79 109.87 13.42 109.93 13.05C109.93 12.33 110.22 11.65 110.74 11.14C111.09 10.78 111.53 10.52 112.02 10.39C112.5 10.25 113.02 10.26 113.51 10.39C114.51 10.67 115.42 11.22 116.14 11.97C116.86 12.73 117.36 13.66 117.59 14.66C117.96 15.69 118 15.69 118.67 15.42L119.09 15.26L119.09 9.59L118.79 9.46C116.52 8.67 114.11 8.35 111.71 8.5C109.64 8.55 107.67 9.36 106.17 10.78C105.5 11.4 104.96 12.16 104.62 13.01C104.27 13.86 104.12 14.77 104.17 15.69C104.18 17.08 104.74 18.42 105.73 19.42C106.83 20.48 108.18 21.26 109.65 21.69C113.23 23.08 114.27 23.97 114.27 25.58C114.28 26.26 114.06 26.93 113.64 27.47C113.22 28.01 112.63 28.4 111.96 28.56C111.15 28.74 110.32 28.74 109.52 28.56C108.46 28.16 107.52 27.51 106.77 26.68C106.02 25.84 105.48 24.84 105.2 23.76L104.9 23.03L104.49 23.03C104.29 23.05 104.1 23.1 103.91 23.17L103.68 23.17L103.68 29.63L104.07 29.63C105.63 30.14 107.24 30.49 108.87 30.68L111.18 30.68C112.18 30.75 113.18 30.66 114.15 30.4C115.38 30.18 116.53 29.64 117.49 28.84C118.44 28.05 119.17 27.02 119.59 25.85C119.87 25.21 120.01 24.51 120.01 23.81C120.1 22.82 119.92 21.82 119.5 20.92ZM97.78 9.16C96.4 8.59 94.91 8.31 93.41 8.35C91.91 8.38 90.44 8.73 89.08 9.37C87.81 9.98 86.69 10.85 85.78 11.92C84.87 12.99 84.2 14.23 83.8 15.57C83.31 17.04 83.09 18.58 83.18 20.12C83.17 20.96 83.23 21.8 83.39 22.63C83.76 24.65 84.75 26.52 86.23 27.98C87.71 29.43 89.61 30.41 91.67 30.77C93.01 30.93 94.36 30.93 95.7 30.77C97.09 30.53 98.42 30.02 99.62 29.29C100.62 28.74 101.45 27.96 102.07 27.02C102.03 26.87 101.96 26.73 101.86 26.61C101.77 26.49 101.65 26.38 101.51 26.31C101.25 26.4 101 26.53 100.78 26.7C99.63 27.44 98.27 27.82 96.9 27.77C95.99 27.83 95.08 27.69 94.23 27.36C93.38 27.03 92.61 26.51 91.99 25.85C91.51 25.41 91.11 24.89 90.81 24.31C90.1 22.89 89.71 21.34 89.68 19.76L89.68 18.87L102.46 18.87L102.46 18.42C102.49 17.96 102.49 17.51 102.46 17.05C102.46 15.45 102.02 13.87 101.2 12.48C100.38 11.1 99.2 9.95 97.78 9.16ZM91.34 17.03L89.73 17.03L89.73 15.69C90.26 12.25 91.58 10.21 93.19 10.21C94.8 10.21 95.5 12.23 95.8 15.94L95.8 16.98L94.41 16.98L91.34 17.03ZM58.19 8.41C57.39 8.38 56.6 8.54 55.88 8.89C54.32 9.63 53.06 10.88 52.31 12.41L52.01 12.96L52.01 8.41L51.89 8.41C51.61 8.41 43.08 10.09 42.81 10.21C42.53 10.32 42.62 10.34 42.62 10.75C42.62 11.16 42.62 11.23 42.81 11.25L43.7 11.44C43.96 11.44 44.2 11.5 44.43 11.62C44.65 11.73 44.85 11.9 45 12.09C45.57 12.85 45.69 14.16 45.69 19.78C45.8 22.31 45.69 24.85 45.36 27.36C45.29 27.73 45.09 28.08 44.81 28.35C44.52 28.61 44.16 28.78 43.77 28.83L42.99 28.99L42.69 28.99L42.69 29.63C42.61 29.84 42.61 30.08 42.69 30.29L55.58 30.29L55.58 29.63C55.62 29.41 55.62 29.19 55.58 28.97C54.8 28.94 54.03 28.84 53.27 28.68C52.86 28.46 52.52 28.13 52.31 27.73C52.09 27.32 52 26.86 52.05 26.4C51.87 25.08 51.78 21.22 51.82 18.26C51.87 15.3 51.82 15.12 52.07 14.91C52.85 14.33 53.8 14.03 54.77 14.07C55.69 14.09 56.59 14.32 57.4 14.73C57.68 14.89 57.99 15 58.3 15.07C58.3 15.07 60.61 9.57 60.61 9.32C60.31 8.98 59.94 8.72 59.51 8.56C59.09 8.4 58.63 8.35 58.19 8.41ZM42.64 17.96C42.56 16.34 42.09 14.75 41.26 13.35C40.44 11.94 39.28 10.74 37.89 9.87C36.24 8.99 34.41 8.5 32.53 8.45C30.66 8.4 28.8 8.78 27.1 9.57C24.7 10.82 22.89 12.94 22.05 15.48C21.19 18.33 21.19 21.37 22.05 24.22C22.51 25.77 23.36 27.19 24.52 28.33C25.97 29.73 27.84 30.62 29.85 30.88C31.13 30.99 32.43 30.99 33.72 30.88C34.19 30.81 34.66 30.71 35.13 30.59C37 30.07 38.69 29.03 39.99 27.6C41.3 26.17 42.16 24.41 42.48 22.51C42.71 21.01 42.77 19.48 42.64 17.96ZM33.05 29.33C30.75 30.02 29.02 27.81 28.44 23.17C28.23 20.74 28.23 18.3 28.44 15.87C28.9 12.14 30.08 10.25 31.9 10.25C32.27 10.23 32.63 10.29 32.97 10.44C33.31 10.59 33.6 10.81 33.84 11.09C35.38 12.62 36.14 15.64 36.14 20.19C36.33 22.77 35.92 25.35 34.94 27.74C34.51 28.44 33.84 28.96 33.05 29.22L33.05 29.33ZM74.56 8.87C73.91 8.78 73.25 8.78 72.6 8.87C71.35 8.86 70.11 9.13 68.98 9.64L68.26 9.93L68.26 5C68.39 3.33 68.39 1.66 68.26 0C67.99 0 59.18 1.66 59.04 1.72C58.97 1.89 58.97 2.08 59.04 2.25C59.04 2.72 59.04 2.7 60.08 2.93C60.37 2.99 60.65 3.1 60.91 3.25C61.36 3.66 61.66 4.22 61.76 4.82C62.02 6.55 62.11 8.3 62.01 10.05L62.01 30.02L62.64 30.15C63.56 30.36 66.16 30.79 67.02 30.88C68.72 31.02 70.43 31.02 72.14 30.88C74.03 30.69 75.83 30 77.35 28.87C78.87 27.74 80.05 26.23 80.76 24.49C81.18 23.37 81.48 22.21 81.64 21.03C81.77 19.43 81.72 17.82 81.48 16.23C81.23 14.45 80.43 12.79 79.19 11.47C77.96 10.16 76.34 9.25 74.56 8.87ZM68.52 28.95C68.52 28.65 68.29 18.69 68.33 14.71L68.33 11.59L69 11.44C69.45 11.37 69.91 11.37 70.36 11.44C70.86 11.39 71.36 11.5 71.79 11.75C72.65 12.34 73.37 13.11 73.88 14.01C74.4 14.91 74.7 15.91 74.77 16.94C74.93 18.6 74.93 20.26 74.77 21.92C74.63 24.33 73.69 26.62 72.09 28.45C71.64 28.87 71.07 29.16 70.45 29.27C69.99 29.35 69.51 29.35 69.05 29.27C68.61 29.27 68.61 29.13 68.61 28.95L68.52 28.95Z" fill="#000000" fill-opacity="1.000000" fill-rule="nonzero"/>
</svg>
