<svg width="144.000000" height="51.000000" viewBox="0 0 144 51" fill="none" xmlns="http://www.w3.org/2000/svg" xmlns:xlink="http://www.w3.org/1999/xlink">
	<desc>
			Created with Pixso.
	</desc>
	<defs>
		<clipPath id="clip1_101">
			<rect id="Frame" rx="0.000000" width="9.000000" height="5.000000" transform="translate(114.500000 23.500000)" fill="white" fill-opacity="0"/>
		</clipPath>
	</defs>
	<rect id="Frame" rx="0.000000" width="9.000000" height="5.000000" transform="translate(114.500000 23.500000)" fill="#FFFFFF" fill-opacity="0"/>
	<g clip-path="url(#clip1_101)">
		<path id="Vector" d="M115 24L119 28L123 24" stroke="#000000" stroke-opacity="1.000000" stroke-width="1.500000" stroke-linejoin="bevel"/>
	</g>
	<path id="Resources" d="M23.35 25.83L25.22 25.83L27.35 30L29.87 30L29.87 29.89L27.41 25.24Q28.43 24.78 28.94 24Q29.44 23.22 29.44 22.06Q29.44 20.91 28.91 20.13Q28.68 19.79 28.35 19.52Q27.25 18.62 25.24 18.62L21.01 18.62L21.01 30L23.35 30L23.35 25.83ZM25.25 23.93L23.35 23.93L23.35 20.52L25.24 20.52Q26.18 20.52 26.64 20.98Q26.71 21.05 26.77 21.13Q27.1 21.56 27.1 22.25Q27.1 22.85 26.81 23.25Q26.73 23.38 26.61 23.48Q26.6 23.49 26.59 23.51Q26.11 23.93 25.25 23.93ZM32.64 29.56Q33.62 30.15 34.96 30.15Q36.02 30.15 36.89 29.75Q37.58 29.43 38.05 28.9Q38.16 28.77 38.26 28.63L37.15 27.39Q36.87 27.75 36.49 27.98Q35.91 28.33 35.11 28.33Q34.49 28.33 34.03 28.06Q33.86 27.96 33.72 27.83Q33.57 27.7 33.46 27.55Q33.14 27.11 33.06 26.5L38.44 26.5L38.44 25.58Q38.44 23.57 37.44 22.48Q37.18 22.19 36.87 21.98Q35.99 21.39 34.71 21.39Q33.77 21.39 32.99 21.75Q32.82 21.83 32.66 21.93Q32.37 22.1 32.13 22.32Q31.6 22.79 31.26 23.48Q30.77 24.48 30.77 25.75L30.77 25.97Q30.77 27.38 31.41 28.37Q31.64 28.72 31.94 29.01Q32.26 29.33 32.64 29.56ZM44.24 27.38Q44.3 27.51 44.3 27.66Q44.3 27.84 44.23 27.99Q44.15 28.17 43.97 28.3Q43.64 28.55 42.99 28.55Q42.29 28.55 41.88 28.23Q41.75 28.13 41.66 28.01Q41.45 27.73 41.43 27.31L39.29 27.31Q39.29 27.58 39.35 27.83Q39.46 28.3 39.76 28.73Q39.8 28.79 39.85 28.85Q40.31 29.43 41.05 29.77Q41.88 30.15 42.94 30.15Q44.51 30.15 45.5 29.44Q46.07 29.03 46.31 28.48Q46.5 28.07 46.5 27.57Q46.5 26.96 46.24 26.48Q45.82 25.7 44.71 25.29Q44.13 25.08 43.28 24.91Q42.44 24.75 42.08 24.51Q41.86 24.37 41.78 24.17Q41.73 24.05 41.73 23.91Q41.73 23.72 41.8 23.56Q41.88 23.39 42.04 23.25Q42.35 23 42.92 23Q43.59 23 43.9 23.31Q44.01 23.42 44.08 23.56Q44.21 23.8 44.21 24.11L46.47 24.11Q46.47 23.53 46.25 23.05Q46.01 22.54 45.51 22.14Q44.54 21.39 42.93 21.39Q41.48 21.39 40.56 22.09Q40.52 22.11 40.49 22.14Q39.94 22.58 39.72 23.15Q39.56 23.55 39.56 24.02Q39.56 24.47 39.72 24.84Q40.26 26.1 42.57 26.58Q43.48 26.77 43.89 27.01Q44.15 27.16 44.24 27.38ZM48.08 23.45Q47.6 24.43 47.6 25.69L47.6 25.79Q47.6 27.6 48.47 28.72Q48.57 28.86 48.69 28.98Q49.01 29.33 49.4 29.57Q50.32 30.15 51.6 30.15Q52.89 30.15 53.8 29.57Q54.19 29.33 54.52 28.98Q54.69 28.79 54.83 28.59Q55.6 27.5 55.6 25.85L55.59 25.28Q55.48 23.78 54.72 22.81Q54.57 22.61 54.38 22.43Q54.08 22.14 53.73 21.93Q52.82 21.39 51.59 21.39Q50.46 21.39 49.59 21.86Q49.53 21.89 49.48 21.92Q49.12 22.13 48.83 22.41Q48.38 22.85 48.08 23.45ZM69.89 23.6Q70.24 23.6 70.7 23.66L70.73 21.49Q70.4 21.39 70.03 21.39Q69.56 21.39 69.17 21.56Q68.56 21.84 68.14 22.55L68.08 21.54L65.95 21.54L65.95 30L68.21 30L68.21 24.46Q68.31 24.24 68.47 24.07Q68.94 23.6 69.89 23.6ZM76.04 28.08Q75.68 28.33 75.15 28.33Q74.6 28.33 74.24 28.07Q74.07 27.94 73.94 27.76Q73.54 27.19 73.54 25.89L73.54 25.65Q73.54 24.36 73.94 23.79Q74.09 23.58 74.29 23.45Q74.63 23.21 75.14 23.21Q75.58 23.21 75.9 23.41Q76.05 23.5 76.17 23.62Q76.26 23.72 76.32 23.82Q76.56 24.18 76.57 24.69L78.69 24.69Q78.68 23.63 78.19 22.86Q78 22.55 77.72 22.29Q77.55 22.13 77.36 22Q76.48 21.39 75.17 21.39Q73.87 21.39 72.97 21.99Q72.62 22.22 72.32 22.55Q72.22 22.66 72.14 22.78Q71.28 23.9 71.28 25.67L71.28 25.82Q71.28 27.76 72.24 28.89Q72.28 28.95 72.33 29Q72.62 29.32 72.96 29.55Q73.88 30.15 75.19 30.15Q76.05 30.15 76.77 29.84Q76.87 29.8 76.96 29.76Q77.5 29.49 77.88 29.09Q78.07 28.88 78.22 28.65Q78.44 28.31 78.55 27.95Q78.69 27.53 78.69 27.07L76.57 27.07Q76.56 27.44 76.4 27.71Q76.31 27.86 76.17 27.99Q76.11 28.04 76.04 28.08ZM81.54 29.56Q82.53 30.15 83.87 30.15Q84.92 30.15 85.79 29.75Q86.49 29.43 86.95 28.9Q87.07 28.77 87.17 28.63L86.06 27.39Q85.77 27.75 85.4 27.98Q84.81 28.33 84.02 28.33Q83.4 28.33 82.94 28.06Q82.77 27.96 82.62 27.83Q82.48 27.7 82.37 27.55Q82.04 27.11 81.96 26.5L87.35 26.5L87.35 25.58Q87.35 23.57 86.35 22.48Q86.09 22.19 85.77 21.98Q84.9 21.39 83.62 21.39Q82.68 21.39 81.9 21.75Q81.73 21.83 81.56 21.93Q81.28 22.1 81.03 22.32Q80.5 22.79 80.17 23.48Q79.67 24.48 79.67 25.75L79.67 25.97Q79.67 27.38 80.32 28.37Q80.54 28.72 80.84 29.01Q81.17 29.33 81.54 29.56ZM93.15 27.38Q93.21 27.51 93.21 27.66Q93.21 27.84 93.14 27.99Q93.05 28.17 92.87 28.3Q92.54 28.55 91.89 28.55Q91.2 28.55 90.78 28.23Q90.66 28.13 90.57 28.01Q90.36 27.73 90.34 27.31L88.2 27.31Q88.2 27.58 88.26 27.83Q88.36 28.3 88.67 28.73Q88.71 28.79 88.76 28.85Q89.21 29.43 89.96 29.77Q90.78 30.15 91.85 30.15Q93.42 30.15 94.41 29.44Q94.97 29.03 95.22 28.48Q95.4 28.07 95.4 27.57Q95.4 26.96 95.15 26.48Q94.73 25.7 93.61 25.29Q93.03 25.08 92.19 24.91Q91.35 24.75 90.99 24.51Q90.77 24.37 90.68 24.17Q90.64 24.05 90.64 23.91Q90.64 23.72 90.71 23.56Q90.78 23.39 90.95 23.25Q91.26 23 91.83 23Q92.5 23 92.81 23.31Q92.92 23.42 92.99 23.56Q93.12 23.8 93.12 24.11L95.38 24.11Q95.38 23.53 95.15 23.05Q94.91 22.54 94.41 22.14Q93.45 21.39 91.84 21.39Q90.39 21.39 89.47 22.09Q89.43 22.11 89.4 22.14Q88.85 22.58 88.62 23.15Q88.46 23.55 88.46 24.02Q88.46 24.47 88.63 24.84Q89.16 26.1 91.48 26.58Q92.39 26.77 92.8 27.01Q93.06 27.16 93.15 27.38ZM61.41 29.71Q61.77 29.49 62.06 29.14L62.12 30L64.25 30L64.25 21.54L61.98 21.54L61.98 27.53Q61.86 27.75 61.68 27.91Q61.22 28.32 60.4 28.32Q59.86 28.32 59.56 28.05Q59.2 27.72 59.2 27L59.2 21.54L56.94 21.54L56.94 27.08Q56.96 28.59 57.67 29.37Q57.78 29.48 57.89 29.58Q58.58 30.15 59.75 30.15Q60.71 30.15 61.41 29.71ZM33.96 23.39Q34.28 23.21 34.71 23.21Q35.32 23.21 35.7 23.51Q35.76 23.56 35.82 23.62Q35.83 23.64 35.84 23.65Q36.21 24.05 36.22 24.78L36.22 24.96L33.08 24.96Q33.2 24.12 33.62 23.67Q33.77 23.5 33.96 23.39ZM50.31 27.69Q49.85 27.06 49.85 25.85Q49.85 24.5 50.31 23.86Q50.51 23.57 50.78 23.41Q51.13 23.21 51.59 23.21Q52.06 23.21 52.41 23.42Q52.68 23.58 52.89 23.86Q53.35 24.51 53.35 25.69Q53.35 27.07 52.89 27.7Q52.68 27.98 52.41 28.13Q52.07 28.33 51.6 28.33Q51.11 28.33 50.74 28.11Q50.49 27.95 50.31 27.69ZM82.86 23.39Q83.19 23.21 83.61 23.21Q84.23 23.21 84.6 23.51Q84.66 23.56 84.72 23.62Q84.73 23.64 84.74 23.65Q85.11 24.05 85.13 24.78L85.13 24.96L81.99 24.96Q82.1 24.12 82.52 23.67Q82.68 23.5 82.86 23.39Z" fill="#000000" fill-opacity="1.000000" fill-rule="evenodd"/>
</svg>
