<svg width="161.000000" height="51.000000" viewBox="0 0 161 51" fill="none" xmlns="http://www.w3.org/2000/svg" xmlns:xlink="http://www.w3.org/1999/xlink">
	<desc>
			Created with Pixso.
	</desc>
	<defs>
		<clipPath id="clip1_109">
			<rect id="Frame" rx="0.000000" width="9.000000" height="5.000000" transform="translate(131.500000 23.500000)" fill="white" fill-opacity="0"/>
		</clipPath>
	</defs>
	<path id="Why Landing" d="M38.17 21.61Q37.55 21.88 37.06 22.46L37.06 18L34.8 18L34.8 30L37.06 30L37.06 23.99Q37.23 23.69 37.48 23.51Q37.89 23.22 38.5 23.22Q39.22 23.22 39.53 23.57Q39.85 23.92 39.85 24.64L39.85 30L42.1 30L42.1 24.58Q42.08 22.74 41.16 21.96Q40.48 21.39 39.32 21.39Q38.7 21.39 38.17 21.61ZM82.56 22.56Q81.67 23.73 81.67 25.71Q81.67 27.8 82.58 28.98Q83.02 29.55 83.61 29.85Q84.21 30.15 84.97 30.15Q85.61 30.15 86.13 29.91Q86.7 29.65 87.14 29.1L87.25 30L89.29 30L89.29 18L87.03 18L87.03 22.31Q86.63 21.86 86.14 21.63Q85.62 21.39 84.99 21.39Q84.13 21.39 83.47 21.75Q82.95 22.04 82.56 22.56ZM91.16 18.8Q91.03 19.04 91.03 19.35Q91.03 19.67 91.16 19.92Q91.24 20.07 91.37 20.2Q91.44 20.26 91.52 20.31Q91.83 20.53 92.29 20.53Q92.75 20.53 93.07 20.31Q93.14 20.26 93.21 20.2Q93.34 20.07 93.42 19.92Q93.56 19.67 93.56 19.35Q93.56 19.05 93.43 18.8Q93.35 18.65 93.21 18.52Q93.16 18.46 93.09 18.42Q92.77 18.19 92.29 18.19Q91.79 18.19 91.47 18.43Q91.41 18.47 91.37 18.52Q91.24 18.64 91.16 18.8ZM31.4 18.62L29.87 26.71L28 18.62L26.02 18.62L24.14 26.7L22.6 18.62L20.27 18.62L22.79 30L25.15 30L27 22.39L28.85 30L31.21 30L33.74 18.62L31.4 18.62ZM63.29 28.11L58.32 28.11L58.32 18.62L55.97 18.62L55.97 30L63.29 30L63.29 28.11ZM69.16 29.24Q69.23 29.69 69.39 30L71.67 30L71.67 29.86Q71.34 29.25 71.33 28.04L71.33 24.38Q71.33 23.35 70.85 22.65Q70.67 22.39 70.41 22.17Q70.39 22.15 70.37 22.13Q69.46 21.39 67.93 21.39Q66.9 21.39 66.07 21.74Q65.25 22.1 64.79 22.72Q64.51 23.12 64.4 23.55Q64.34 23.81 64.34 24.08L66.6 24.08Q66.6 23.77 66.74 23.54Q66.81 23.42 66.92 23.33Q67.25 23.06 67.82 23.06Q68.41 23.06 68.72 23.36Q68.74 23.38 68.76 23.41Q68.78 23.43 68.8 23.45Q69.07 23.79 69.07 24.35L69.07 24.83L68.03 24.83Q66.14 24.84 65.15 25.56Q64.76 25.84 64.52 26.22Q64.15 26.8 64.15 27.62Q64.15 28.18 64.36 28.63Q64.57 29.08 64.97 29.43Q65.17 29.61 65.39 29.74Q66.08 30.15 67.03 30.15Q67.81 30.15 68.42 29.82Q68.83 29.6 69.16 29.24ZM75.21 22.52L75.14 21.54L73.02 21.54L73.02 30L75.28 30L75.28 24.03Q75.51 23.64 75.86 23.43Q76.22 23.22 76.71 23.22Q77.43 23.22 77.75 23.55Q78.06 23.87 78.06 24.59L78.06 30L80.32 30L80.32 24.53Q80.3 22.96 79.64 22.17Q79.54 22.05 79.42 21.95Q78.78 21.39 77.64 21.39Q76.78 21.39 76.12 21.75Q75.61 22.03 75.21 22.52ZM97.43 22.52L97.36 21.54L95.24 21.54L95.24 30L97.5 30L97.5 24.03Q97.73 23.64 98.07 23.43Q98.44 23.22 98.92 23.22Q99.65 23.22 99.96 23.55Q100.28 23.87 100.28 24.59L100.28 30L102.53 30L102.53 24.53Q102.52 22.96 101.86 22.17Q101.76 22.05 101.64 21.95Q101 21.39 99.86 21.39Q99 21.39 98.34 21.75Q97.83 22.03 97.43 22.52ZM104.84 22.57Q103.92 23.76 103.92 25.71L103.92 25.8Q103.92 27.77 104.86 28.96Q105.33 29.55 105.94 29.85Q106.56 30.15 107.32 30.15Q108.1 30.15 108.7 29.82Q109.08 29.61 109.38 29.27L109.38 29.72Q109.38 30.48 109.01 30.95Q108.95 31.02 108.88 31.08Q108.84 31.12 108.79 31.16Q108.31 31.57 107.48 31.57Q106.97 31.57 106.53 31.4Q105.92 31.17 105.43 30.62L104.43 32Q104.89 32.58 105.77 32.95Q106.38 33.21 107.01 33.29Q107.29 33.32 107.58 33.32Q108.81 33.32 109.72 32.89Q110.31 32.62 110.73 32.18Q110.96 31.93 111.14 31.64Q111.17 31.6 111.19 31.56Q111.64 30.77 111.64 29.71L111.64 21.54L109.6 21.54L109.5 22.34Q109.24 22.02 108.92 21.81Q108.26 21.39 107.34 21.39Q106.47 21.39 105.8 21.75Q105.26 22.04 104.84 22.57ZM48.53 21.54L46.96 26.8L45.39 21.54L42.96 21.54L45.92 30.02L45.66 30.71Q45.48 31.17 45.16 31.36Q44.85 31.56 44.21 31.56L43.86 31.55L43.86 33.26Q44.37 33.41 44.86 33.41Q45.67 33.41 46.26 33.06Q46.95 32.64 47.36 31.75L47.55 31.31L50.95 21.54L48.53 21.54ZM91.16 30L93.42 30L93.42 21.54L91.16 21.54L91.16 30ZM84.35 27.69Q83.93 27.06 83.93 25.87Q83.93 23.95 84.79 23.42Q85.12 23.22 85.57 23.22Q86.14 23.22 86.53 23.49Q86.84 23.71 87.03 24.1L87.03 27.44Q86.84 27.83 86.52 28.05Q86.13 28.32 85.55 28.32Q85.12 28.32 84.8 28.13Q84.53 27.98 84.35 27.69ZM106.64 27.67Q106.18 27.02 106.18 25.87Q106.18 24.55 106.64 23.89Q106.87 23.56 107.19 23.39Q107.51 23.22 107.92 23.22Q108.54 23.22 108.95 23.52Q109.2 23.7 109.38 24L109.38 27.55Q109.22 27.83 108.98 28Q108.56 28.32 107.9 28.32Q107.49 28.32 107.17 28.15Q106.86 27.99 106.64 27.67ZM68.18 28.32Q67.87 28.42 67.52 28.42Q67.04 28.42 66.75 28.19Q66.73 28.17 66.71 28.15Q66.58 28.03 66.51 27.89Q66.41 27.7 66.41 27.46L66.42 27.32Q66.45 26.96 66.64 26.71Q67.05 26.15 68.22 26.15L69.07 26.15L69.07 27.6Q69.03 27.67 68.99 27.73Q68.79 28.02 68.44 28.2Q68.31 28.27 68.18 28.32Z" fill="#000000" fill-opacity="1.000000" fill-rule="evenodd"/>
	<rect id="Frame" rx="0.000000" width="9.000000" height="5.000000" transform="translate(131.500000 23.500000)" fill="#FFFFFF" fill-opacity="0"/>
	<g clip-path="url(#clip1_109)">
		<path id="Vector" d="M132 24L136 28L140 24" stroke="#000000" stroke-opacity="1.000000" stroke-width="1.500000" stroke-linejoin="bevel"/>
	</g>
</svg>
