<svg width="42.000000" height="48.000000" viewBox="0 0 42 48" fill="none" xmlns="http://www.w3.org/2000/svg" xmlns:xlink="http://www.w3.org/1999/xlink">
	<desc>
			Created with Pixso.
	</desc>
	<defs>
		<clipPath id="clip1_706">
			<rect id="Frame" rx="0.000000" width="41.000000" height="47.000000" transform="translate(0.500000 0.500000)" fill="white" fill-opacity="0"/>
		</clipPath>
	</defs>
	<rect id="Frame" rx="0.000000" width="41.000000" height="47.000000" transform="translate(0.500000 0.500000)" fill="#FFFFFF" fill-opacity="0"/>
	<g clip-path="url(#clip1_706)">
		<path id="Vector" d="M6.31 34.07C6.42 34.12 6.4 34.1 6.4 34.03C6.42 33.95 6.42 33.86 6.48 33.84C6.62 33.81 6.76 33.8 6.82 33.65C6.86 33.55 6.96 33.51 7.06 33.46C7.15 33.4 7.23 33.34 7.22 33.19C7.22 33.18 7.25 33.19 7.27 33.2C7.49 33.23 7.48 33.05 7.52 32.9C7.55 32.77 7.89 32.92 7.85 32.69C7.82 32.53 7.95 32.55 8.01 32.49C8.1 32.41 8.19 32.33 8.27 32.25C8.35 32.16 8.42 32.06 8.48 31.96C8.52 31.88 8.59 31.83 8.66 31.76C8.81 31.59 8.97 31.42 9.08 31.21C9.12 31.13 9.16 31.05 9.23 30.99C9.32 30.91 9.39 30.82 9.45 30.72C9.51 30.62 9.57 30.52 9.63 30.42C9.67 30.34 9.7 30.25 9.78 30.18C9.86 30.1 9.93 29.97 10 29.83C10.04 29.76 10.08 29.7 10.11 29.63C10.14 29.57 10.17 29.51 10.2 29.46C10.21 29.44 10.26 29.35 10.33 29.22C10.39 29.09 10.47 28.92 10.55 28.76C10.71 28.43 10.85 28.09 10.87 28.04C10.93 27.93 10.98 27.81 11.02 27.69L10.28 27.83C10.34 27.9 10.41 27.96 10.47 28.03C10.54 28.1 10.62 28.16 10.68 28.26C10.79 28.43 10.96 28.56 11.1 28.71C11.17 28.79 11.25 28.87 11.32 28.96C11.44 29.12 11.66 29.19 11.71 29.42C11.72 29.45 11.78 29.42 11.81 29.44C11.98 29.56 12 29.83 12.26 29.86C12.27 29.86 12.26 29.88 12.26 29.89C12.22 30.1 12.4 30.09 12.55 30.13C12.67 30.16 12.5 30.49 12.73 30.47C12.75 30.47 12.79 30.46 12.8 30.47C12.93 30.62 12.96 30.86 13.23 30.88C13.23 30.88 13.22 30.91 13.21 30.93C13.18 31.14 13.38 31.11 13.51 31.17C13.62 31.22 13.54 31.46 13.7 31.53C13.92 31.61 14.07 31.78 14.15 31.99C14.19 32.08 14.27 32.12 14.35 32.15L14.27 31.74C14.27 31.78 14.28 31.83 14.28 31.87C14.28 31.99 13.94 31.98 14.05 32.17C14.06 32.18 14.06 32.2 14.07 32.21C14.15 32.3 14.12 32.33 14.02 32.35C13.8 32.39 13.89 32.56 13.91 32.71C13.92 32.83 13.56 32.79 13.66 32.99C13.67 33 13.67 33.02 13.67 33.03C13.67 33.13 13.58 33.2 13.51 33.27C13.44 33.34 13.39 33.43 13.46 33.57C13.47 33.58 13.41 33.58 13.39 33.58C13.23 33.61 13.24 33.73 13.23 33.84C13.21 33.96 13.19 34.07 13 34.07C12.95 34.07 13.03 34.2 13 34.24C12.91 34.42 12.84 34.62 12.67 34.74C12.55 34.82 12.51 34.92 12.51 35.08C12.5 35.21 12.15 35.1 12.22 35.31C12.22 35.33 12.23 35.36 12.22 35.37C12.11 35.53 11.88 35.59 11.9 35.85C11.9 35.86 11.85 35.84 11.83 35.85C11.75 35.85 11.68 35.91 11.61 36.01C11.54 36.1 11.47 36.23 11.38 36.35C11.3 36.47 11.22 36.59 11.13 36.67C11.04 36.76 10.95 36.8 10.86 36.78C10.81 36.76 10.85 36.89 10.81 36.93C10.74 37 10.68 37.09 10.6 37.16C10.53 37.23 10.45 37.29 10.35 37.32C10.28 37.34 10.23 37.38 10.2 37.44C10.17 37.49 10.14 37.55 10.11 37.61C10.05 37.71 9.76 37.52 9.77 37.75C9.78 37.91 9.66 37.84 9.59 37.87C9.49 37.92 9.4 37.97 9.31 38.03C9.27 38.06 9.22 38.09 9.17 38.12C9.13 38.14 9.08 38.17 9.03 38.2C8.96 38.24 8.9 38.29 8.81 38.32C8.63 38.36 8.46 38.44 8.3 38.53L8.83 38.72C8.82 38.7 8.81 38.68 8.8 38.67C8.74 38.59 8.69 38.52 8.66 38.43C8.6 38.24 8.47 38.07 8.37 37.89C8.32 37.81 8.27 37.74 8.23 37.65C8.15 37.47 8.04 37.3 7.93 37.13C7.88 37.04 7.82 36.96 7.78 36.87C7.71 36.7 7.05 35.57 6.93 35.4C6.86 35.31 6.52 34.72 6.47 34.63C6.38 34.47 6.24 34.3 6.19 34.15C6.19 34.14 6.18 34.12 6.16 34.11L5.27 33.92C5.24 33.97 5.28 34.04 5.4 34.13C5.53 34.23 5.6 34.29 5.51 34.35C5.38 34.45 5.78 34.61 5.78 34.7C5.77 34.81 5.75 34.91 5.89 35.04C5.98 35.13 5.99 35.22 6.01 35.32C6.04 35.41 6.08 35.5 6.24 35.59C6.25 35.59 6.22 35.61 6.22 35.62C6.11 35.74 6.29 35.85 6.44 35.96C6.5 36.01 6.46 36.07 6.43 36.13C6.41 36.2 6.4 36.26 6.53 36.31C6.71 36.38 6.63 36.46 6.67 36.54C6.76 36.76 6.86 36.98 7.01 37.18C7.08 37.26 7.1 37.34 7.14 37.43C7.23 37.64 7.33 37.85 7.47 38.05C7.53 38.13 7.59 38.19 7.62 38.29C7.68 38.51 7.83 38.71 7.95 38.91C7.99 38.99 8.05 39.05 8.08 39.14L8.19 39.42L8.6 39.33C8.61 39.33 8.62 39.33 8.63 39.33C8.74 39.3 8.88 39.24 9.03 39.17C9.17 39.11 9.3 39.02 9.41 38.97C9.43 38.96 9.53 38.91 9.66 38.84C9.78 38.77 9.94 38.66 10.1 38.56C10.14 38.53 10.18 38.51 10.22 38.48C10.25 38.46 10.29 38.43 10.33 38.4C10.4 38.35 10.46 38.3 10.52 38.26C10.64 38.17 10.73 38.11 10.75 38.09C10.93 37.97 11.1 37.82 11.26 37.67C11.34 37.59 11.4 37.51 11.5 37.45C11.68 37.33 11.8 37.14 11.95 36.99C12.03 36.91 12.1 36.82 12.18 36.74C12.26 36.67 12.31 36.58 12.37 36.49C12.43 36.41 12.5 36.33 12.61 36.29C12.64 36.27 12.61 36.21 12.62 36.18C12.67 36.08 12.76 36.02 12.83 35.95C12.91 35.87 12.98 35.79 12.97 35.65C12.97 35.65 12.99 35.65 13 35.65C13.22 35.64 13.18 35.47 13.18 35.31C13.19 35.18 13.54 35.27 13.47 35.05C13.47 35.03 13.45 35 13.46 34.98C13.52 34.9 13.61 34.84 13.67 34.76C13.74 34.68 13.78 34.58 13.75 34.45C13.75 34.44 13.79 34.45 13.8 34.45C14.02 34.42 13.95 34.24 13.96 34.09C13.97 33.96 14.23 33.96 14.24 33.79C14.25 33.55 14.35 33.35 14.52 33.19C14.64 33.08 14.6 32.94 14.61 32.8C14.61 32.68 14.96 32.69 14.85 32.49C14.84 32.48 14.84 32.46 14.83 32.45C14.76 32.36 14.79 32.32 14.89 32.3C15.05 32.26 15.04 32.15 15.01 32.03L14.93 31.61C14.9 31.6 14.86 31.6 14.83 31.59C14.7 31.55 14.87 31.23 14.64 31.25C14.63 31.25 14.61 31.25 14.6 31.25C14.41 31.16 14.47 30.82 14.15 30.86C14.14 30.86 14.16 30.81 14.16 30.79C14.2 30.47 13.7 30.63 13.79 30.26C13.8 30.21 13.67 30.25 13.63 30.21C13.48 30.07 13.3 29.95 13.22 29.75C13.16 29.61 13.07 29.55 12.91 29.52C12.78 29.49 12.96 29.16 12.73 29.18C12.71 29.18 12.68 29.19 12.67 29.17C12.53 29.04 12.5 28.79 12.23 28.77C12.22 28.77 12.25 28.72 12.25 28.7C12.27 28.41 11.27 27.99 11.35 27.63C11.37 27.58 11.23 27.61 11.2 27.58C11.09 27.48 10.97 27.39 10.88 27.27L10.52 26.83L10.25 27.4C10.22 27.46 10.19 27.51 10.14 27.56C10.04 27.67 10.08 27.8 10.08 27.93C10.08 28.05 9.73 28.03 9.85 28.23C9.94 28.36 9.8 28.37 9.76 28.43C9.7 28.53 9.65 28.62 9.6 28.73C9.55 28.83 9.51 28.93 9.45 29.03C9.41 29.1 9.4 29.18 9.34 29.25C9.19 29.42 9.1 29.61 8.99 29.8C8.95 29.89 8.92 29.97 8.85 30.04C8.78 30.11 8.72 30.2 8.66 30.29C8.6 30.38 8.55 30.47 8.49 30.56C8.43 30.63 8.38 30.71 8.32 30.79C8.18 30.94 8.06 31.11 7.93 31.27C7.87 31.35 7.81 31.43 7.74 31.5C7.7 31.54 7.62 31.63 7.51 31.74C7.4 31.86 7.27 32 7.14 32.14C7.07 32.21 7 32.28 6.94 32.34C6.88 32.41 6.81 32.47 6.76 32.52C6.65 32.64 6.56 32.72 6.53 32.76C6.49 32.8 6.34 32.93 6.19 33.07C6.03 33.2 5.88 33.32 5.83 33.36C5.72 33.43 5.63 33.53 5.54 33.63C5.45 33.73 5.36 33.83 5.27 33.92L6.16 34.11C6.17 34.1 6.21 34.11 6.19 34.09C6.16 34.06 6.17 34.01 6.31 34.07Z" fill="#1B1918" fill-opacity="1.000000" fill-rule="nonzero"/>
		<path id="Vector" d="M13.95 43.38C14.05 43.22 13.97 42.76 13.76 42.32C13.65 42.1 13.51 41.91 13.4 41.75C13.34 41.67 13.29 41.6 13.26 41.53C13.22 41.46 13.2 41.4 13.2 41.35C13.19 41.28 13.03 41.29 12.97 41.25C12.84 41.14 12.69 41.06 12.55 40.98C12.4 40.91 12.26 40.83 12.12 40.74C11.93 40.61 11.73 40.64 11.53 40.66C11.49 40.67 11.45 40.65 11.41 40.62C11.36 40.6 11.32 40.56 11.27 40.53C11.18 40.48 11.07 40.44 10.97 40.54C10.91 40.6 10.85 40.61 10.79 40.6C10.74 40.59 10.68 40.56 10.62 40.56C10.27 40.57 9.93 40.69 9.61 40.82C9.61 40.82 9.6 40.83 9.6 40.83C9.57 40.73 9.55 40.64 9.52 40.55C9.49 40.42 9.45 40.3 9.43 40.17C9.4 39.87 9.3 39.58 9.21 39.29C9.17 39.16 9.12 39.04 9.09 38.9C9.02 38.61 8.91 38.33 8.79 38.06C8.73 37.92 8.67 37.79 8.61 37.64C8.6 37.61 8.57 37.55 8.53 37.47C8.49 37.4 8.44 37.3 8.39 37.21C8.28 37.01 8.14 36.77 7.99 36.54C7.7 36.08 7.39 35.64 7.31 35.52C7.22 35.4 6.67 34.59 6.58 34.46C6.44 34.24 6.25 34.05 6.14 33.8C6.13 33.79 6.12 33.78 6.12 33.77L6.11 33.76L6.1 33.75L6.08 33.73C6.06 33.7 6.03 33.67 6 33.65C5.93 33.6 5.86 33.57 5.79 33.56C5.76 33.59 5.72 33.6 5.68 33.66C5.57 33.81 5.49 33.9 5.4 33.84C5.34 33.79 5.26 33.88 5.18 33.98C5.1 34.08 5.02 34.19 4.96 34.21C4.82 34.24 4.69 34.25 4.52 34.43C4.41 34.55 4.29 34.58 4.18 34.64C4.06 34.69 3.94 34.76 3.83 34.95C3.83 34.96 3.81 34.94 3.8 34.93C3.62 34.86 3.5 35.08 3.36 35.27C3.3 35.34 3.22 35.32 3.13 35.31C3.05 35.31 2.96 35.32 2.91 35.47C2.83 35.67 2.72 35.62 2.62 35.68C2.34 35.84 2.06 36.01 1.81 36.23C1.71 36.32 1.61 36.37 1.5 36.43C1.23 36.59 0.96 36.77 0.71 36.97C0.61 37.05 0.53 37.13 0.41 37.19C0.37 37.21 0.34 37.23 0.3 37.24C0.3 37.25 0.24 37.29 0.2 37.32C0.16 37.36 0.12 37.41 0.09 37.46C-0.03 37.65 -0.04 37.91 0.08 38.12L0.1 38.15L0.11 38.17L0.12 38.18L0.14 38.2L0.17 38.25L0.24 38.34C0.29 38.4 0.33 38.46 0.38 38.52C0.45 38.62 0.54 38.7 0.6 38.83C0.66 38.96 0.77 39.12 0.89 39.28C0.95 39.36 1.01 39.44 1.07 39.52L1.08 39.54C1.09 39.55 1.1 39.56 1.11 39.58C1.14 39.6 1.16 39.63 1.19 39.65C1.24 39.69 1.29 39.73 1.35 39.75C1.47 39.8 1.59 39.82 1.7 39.8C1.73 39.8 1.77 39.79 1.83 39.77C1.89 39.75 1.96 39.72 2.03 39.66C2.08 39.62 2.14 39.56 2.21 39.5C2.36 39.38 2.54 39.22 2.72 39.07C2.82 38.99 2.91 38.91 2.99 38.84C3.04 38.8 3.08 38.76 3.12 38.73C3.14 38.71 3.16 38.7 3.18 38.68C3.18 38.68 3.19 38.68 3.19 38.68C3.2 38.67 3.2 38.67 3.21 38.67C3.21 38.67 3.21 38.67 3.21 38.67C3.22 38.67 3.22 38.68 3.22 38.68C3.23 38.69 3.24 38.7 3.24 38.71C3.24 38.71 3.24 38.71 3.24 38.71C3.24 38.71 3.24 38.71 3.25 38.72C3.25 38.72 3.25 38.72 3.25 38.72L3.25 38.73L3.25 38.76C3.27 38.84 3.28 38.91 3.29 38.98C3.31 39.13 3.34 39.27 3.35 39.42C3.36 39.56 3.39 39.71 3.43 39.85C3.47 40 3.51 40.14 3.55 40.28C3.59 40.43 3.65 40.57 3.69 40.73C3.7 40.76 3.71 40.8 3.72 40.83C3.73 40.86 3.75 40.9 3.76 40.93C3.8 40.99 3.83 41.06 3.86 41.12C3.92 41.26 3.99 41.38 4 41.54C4 41.58 4.07 41.59 4.1 41.62C4.18 41.74 4.24 41.89 4.29 42.02C4.35 42.16 4.44 42.29 4.59 42.36C4.59 42.37 4.58 42.38 4.58 42.39C4.56 42.52 4.61 42.6 4.68 42.66C4.75 42.71 4.85 42.75 4.95 42.79C5.02 42.83 5.02 42.94 5.04 43.04C5.05 43.15 5.09 43.25 5.23 43.26C5.26 43.26 5.29 43.26 5.31 43.27C5.35 43.33 5.4 43.38 5.44 43.44C5.49 43.49 5.53 43.55 5.58 43.61C5.68 43.71 5.8 43.79 5.96 43.81C5.97 43.81 5.97 43.85 5.97 43.86C5.99 43.99 6.07 44.05 6.15 44.08C6.24 44.11 6.35 44.11 6.44 44.14C6.52 44.16 6.57 44.24 6.63 44.32C6.69 44.4 6.76 44.49 6.87 44.51C7.18 44.56 7.47 44.7 7.72 44.88C7.89 45 8.07 44.97 8.25 44.98C8.34 44.98 8.39 45.07 8.47 45.14C8.54 45.21 8.62 45.27 8.74 45.21C8.76 45.2 8.78 45.2 8.79 45.18C8.88 45.1 8.94 45.12 9.01 45.22C9.16 45.43 9.35 45.32 9.55 45.26C9.59 45.25 9.63 45.27 9.67 45.29C9.69 45.3 9.71 45.31 9.73 45.33C9.74 45.34 9.75 45.35 9.78 45.35C9.8 45.36 9.8 45.37 9.81 45.37C9.9 45.43 9.98 45.47 10.08 45.38C10.09 45.37 10.11 45.36 10.12 45.35C10.39 45.27 10.66 45.55 10.93 45.28C10.93 45.28 10.96 45.33 10.98 45.35C11.26 45.59 11.57 45.11 11.85 45.43C11.88 45.48 11.98 45.35 12.05 45.35C12.32 45.34 12.61 45.28 12.88 45.36C12.93 45.37 12.97 45.38 13.02 45.39L13.05 45.39L13.06 45.39L13.09 45.39C13.15 45.39 13.2 45.38 13.25 45.36C13.45 45.3 13.61 45.13 13.64 44.92C13.65 44.9 13.65 44.88 13.66 44.86C13.66 44.85 13.66 44.84 13.67 44.83C13.67 44.81 13.69 44.79 13.7 44.77C13.73 44.74 13.77 44.71 13.81 44.67C13.89 44.6 13.96 44.51 13.89 44.39C13.88 44.36 13.86 44.33 13.86 44.31C13.88 44.17 13.94 44.03 13.97 43.88C13.99 43.74 13.99 43.58 13.9 43.44C13.88 43.43 13.94 43.4 13.95 43.38ZM9.31 40.96C9.32 40.96 9.33 40.95 9.35 40.95C9.33 40.96 9.32 40.96 9.3 40.97C9.29 40.97 9.28 40.98 9.28 40.98C9.29 40.97 9.3 40.97 9.31 40.96Z" fill="#1B1918" fill-opacity="1.000000" fill-rule="nonzero"/>
		<path id="Vector" d="M41.29 35.85C41.2 35.8 41.17 35.74 41.15 35.68C41.14 35.61 41.13 35.54 41.09 35.48C41.06 35.44 41.03 35.4 41 35.36C40.98 35.34 40.96 35.32 40.95 35.3L40.92 35.27L40.9 35.25C40.84 35.2 40.79 35.15 40.74 35.11C40.63 35.02 40.52 34.93 40.41 34.83C40.3 34.74 40.17 34.67 40.04 34.59C39.89 34.49 39.71 34.42 39.52 34.39C39.34 34.37 39.14 34.38 38.97 34.42C38.81 34.46 38.68 34.51 38.52 34.57C38.35 34.63 38.2 34.73 38.07 34.86L38.02 34.91L37.99 34.94L37.92 35.01C37.88 35.06 37.83 35.11 37.79 35.15C37.7 35.23 37.62 35.32 37.53 35.38C37.32 35.53 37.13 35.68 36.93 35.82C36.88 35.85 36.83 35.89 36.78 35.91C36.73 35.95 36.68 35.97 36.62 36C36.57 36.02 36.44 36.08 36.27 36.15C36.1 36.21 35.9 36.28 35.69 36.32C35.26 36.41 34.84 36.36 34.73 36.35C34.7 36.35 34.64 36.33 34.55 36.31C34.5 36.3 34.45 36.29 34.4 36.27C34.35 36.25 34.3 36.23 34.24 36.21C34.03 36.13 33.83 36.02 33.78 35.98C33.63 35.88 33.45 35.79 33.32 35.66L33.04 36.01L32.83 35.61C32.73 35.58 32.64 35.63 32.59 35.75C32.54 35.88 32.48 35.95 32.33 35.89C32.09 35.79 32.1 36.16 31.96 36.17C31.78 36.19 31.63 36.18 31.5 36.32C31.33 36.51 30.99 36.41 30.88 36.72C30.87 36.72 30.84 36.7 30.83 36.7C30.6 36.61 30.53 36.79 30.42 36.94C30.33 37.07 30.03 36.82 29.97 37.07C29.93 37.24 29.79 37.18 29.7 37.22C29.43 37.34 29.17 37.45 28.93 37.61C28.84 37.68 28.74 37.71 28.64 37.76C28.54 37.8 28.44 37.84 28.35 37.88L27.95 38.07L28.15 38.48C28.23 38.64 28.31 38.79 28.41 38.94C28.47 39.03 28.53 39.11 28.56 39.23C28.64 39.49 28.79 39.73 28.92 39.98C28.97 40.08 29.04 40.17 29.07 40.29C29.1 40.42 29.18 40.58 29.26 40.75C29.34 40.91 29.42 41.07 29.47 41.2C29.48 41.23 29.53 41.34 29.6 41.5C29.67 41.66 29.75 41.86 29.83 42.06C29.99 42.47 30.13 42.88 30.14 42.94C30.15 43 30.17 43.07 30.19 43.13C30.2 43.19 30.22 43.25 30.24 43.31L30.3 43.49L30.35 43.68C30.36 43.74 30.38 43.79 30.4 43.85C30.41 43.91 30.42 43.97 30.42 44.03C30.42 44.06 30.43 44.09 30.43 44.12L30.43 44.15L30.43 44.16L30.44 44.18C30.44 44.21 30.45 44.24 30.46 44.28C30.5 44.4 30.57 44.52 30.66 44.62C30.85 44.81 31.12 44.91 31.39 44.88C31.46 44.87 31.53 44.85 31.59 44.83C31.62 44.82 31.65 44.8 31.68 44.79L31.7 44.78L31.72 44.77L31.74 44.76C31.8 44.73 31.86 44.7 31.92 44.67C32.15 44.57 32.32 44.35 32.6 44.33C32.63 44.33 32.64 44.26 32.67 44.24C32.72 44.19 32.77 44.16 32.83 44.14C32.85 44.13 32.92 44.1 32.97 44.07C33.03 44.03 33.08 43.99 33.13 43.94C33.22 43.85 33.28 43.73 33.31 43.6C33.33 43.47 33.31 43.33 33.24 43.22C33.24 43.21 33.25 43.2 33.25 43.18C33.26 43.14 33.27 43.09 33.26 43.05C33.26 43.03 33.26 43.01 33.25 42.99C33.25 42.98 33.25 42.97 33.25 42.96C33.24 42.92 33.22 42.89 33.19 42.86C33.14 42.8 33.05 42.76 32.98 42.71C32.85 42.62 33.09 42.32 32.85 42.25C32.83 42.24 32.79 42.23 32.78 42.22C32.74 42.13 32.72 42.03 32.69 41.94C32.82 41.93 32.96 42.13 33.15 42.07C33.41 41.98 33.7 41.99 33.97 42.07C34.15 42.13 34.29 42.04 34.45 41.98C34.59 41.93 34.76 42.25 34.93 42.06C34.94 42.05 34.96 42.04 34.97 42.03C35.03 41.92 35.08 41.93 35.16 42.01C35.34 42.18 35.48 42.02 35.64 41.93C35.71 41.89 35.79 41.95 35.87 42C35.96 42.04 36.05 42.07 36.13 41.97C36.14 41.96 36.15 41.94 36.17 41.94C36.29 41.88 36.42 41.91 36.55 41.92C36.69 41.92 36.82 41.9 36.91 41.75C36.92 41.74 36.96 41.78 36.98 41.79C37.14 41.89 37.27 41.79 37.39 41.71C37.45 41.67 37.51 41.63 37.58 41.61C37.65 41.59 37.73 41.61 37.83 41.65C37.86 41.66 37.89 41.63 37.91 41.59C37.94 41.55 37.97 41.5 38 41.49C38.27 41.35 38.48 41.14 38.74 41.02C38.93 40.94 39.02 40.81 39.07 40.62C39.1 40.54 39.2 40.53 39.3 40.51C39.4 40.48 39.49 40.44 39.48 40.31C39.47 40.28 39.47 40.25 39.48 40.23C39.63 40.02 39.91 39.89 39.89 39.57C39.89 39.56 39.95 39.57 39.97 39.56C40.13 39.5 40.29 39.14 40.42 38.77C40.55 38.41 40.67 38.05 40.87 37.99C40.92 37.98 40.85 37.85 40.87 37.79C40.97 37.54 41.02 37.26 41.19 37.04C41.24 36.97 41.26 36.89 41.27 36.81L41.27 36.74C41.28 36.71 41.28 36.69 41.28 36.66C41.28 36.6 41.27 36.55 41.27 36.49C41.26 36.4 41.34 36.31 41.38 36.19C41.42 36.07 41.42 35.93 41.29 35.85Z" fill="#1B1918" fill-opacity="1.000000" fill-rule="nonzero"/>
		<path id="Vector" d="M24.56 34.46C24.56 34.53 24.6 34.58 24.64 34.61C24.67 34.63 24.7 34.63 24.73 34.62C24.81 34.62 24.89 34.59 24.91 34.64C24.95 34.76 24.96 34.88 25.1 34.91C25.28 34.94 25.23 35.24 25.5 35.18C25.51 35.18 25.5 35.21 25.49 35.22C25.45 35.43 25.61 35.39 25.75 35.41C25.86 35.43 25.69 35.75 25.9 35.69C26.05 35.65 26.01 35.77 26.05 35.83C26.17 35.97 26.29 36.13 26.44 36.24C26.51 36.28 26.54 36.34 26.58 36.4C26.69 36.55 26.8 36.7 26.94 36.82C27 36.87 27.05 36.91 27.09 36.98C27.16 37.16 27.3 37.28 27.42 37.43C27.47 37.49 27.53 37.53 27.56 37.61C27.63 37.78 27.85 38 27.94 38.15C27.96 38.18 28.04 38.3 28.18 38.51L28.42 38.87L28.77 38.64C29.01 38.49 29.44 38.23 29.49 38.21C29.66 38.15 29.8 38.04 29.95 37.95C30.03 37.9 30.09 37.85 30.18 37.82C30.35 37.77 30.48 37.65 30.64 37.57C30.72 37.53 30.79 37.48 30.88 37.45C31.04 37.39 31.14 37.21 31.34 37.24C31.36 37.24 31.35 37.17 31.37 37.16C31.5 37.03 31.73 37.12 31.81 36.89C31.81 36.89 31.83 36.9 31.83 36.9C32.01 37.01 32.03 36.85 32.09 36.73C32.15 36.62 32.38 36.91 32.41 36.7C32.41 36.67 32.42 36.64 32.43 36.64C32.47 36.62 32.51 36.62 32.55 36.61C32.59 36.61 32.63 36.6 32.67 36.6C32.75 36.58 32.82 36.54 32.86 36.43C32.86 36.42 32.88 36.45 32.89 36.46C33.03 36.58 33.07 36.45 33.14 36.36L33.46 35.9L33.37 35.84C33.36 35.84 33.34 35.83 33.33 35.82C33.24 35.75 33.39 35.55 33.26 35.47C33.09 35.35 33 35.18 32.98 34.99C32.96 34.85 32.84 34.81 32.74 34.75C32.65 34.69 32.87 34.44 32.66 34.42C32.64 34.42 32.63 34.41 32.62 34.42C32.5 34.43 32.5 34.39 32.54 34.31C32.63 34.12 32.46 34.11 32.33 34.06C32.22 34.02 32.45 33.74 32.24 33.74C32.22 33.74 32.21 33.74 32.2 33.73C32.12 33.69 32.11 33.59 32.09 33.5C32.06 33.42 32.01 33.34 31.86 33.35C31.85 33.35 31.88 33.31 31.89 33.28C31.94 33.14 31.84 33.1 31.75 33.05C31.65 33 31.56 32.95 31.64 32.79C31.66 32.74 31.53 32.77 31.5 32.73C31.38 32.6 31.23 32.49 31.19 32.3C31.16 32.17 31.08 32.12 30.94 32.08C30.88 32.07 30.91 31.99 30.92 31.91C30.93 31.84 30.92 31.76 30.82 31.77C30.79 31.78 30.77 31.78 30.76 31.77C30.64 31.65 30.65 31.42 30.4 31.41C30.39 31.41 30.42 31.36 30.42 31.34C30.45 31.21 30.23 31.05 30.03 30.89C29.92 30.81 29.82 30.73 29.75 30.65C29.68 30.57 29.64 30.49 29.67 30.4C29.68 30.36 29.55 30.4 29.52 30.37C29.39 30.24 29.22 30.15 29.15 29.97C29.1 29.85 28.97 29.84 28.85 29.81C28.8 29.79 28.81 29.7 28.81 29.63C28.8 29.55 28.78 29.49 28.68 29.52C28.53 29.57 28.57 29.45 28.52 29.39C28.42 29.27 28.3 29.18 28.18 29.08L27.8 28.78L27.55 29.17C27.53 29.2 27.5 29.24 27.48 29.28C27.43 29.34 27.41 29.42 27.35 29.47C27.2 29.61 27.09 29.79 27 29.96C26.95 30.03 26.92 30.1 26.86 30.17C26.71 30.31 26.63 30.48 26.52 30.64C26.47 30.72 26.43 30.79 26.37 30.86C26.25 31.01 26.15 31.17 26.05 31.33C26 31.41 25.96 31.49 25.89 31.56C25.77 31.71 25.08 32.75 25 32.9C24.96 32.98 24.6 33.51 24.54 33.6C24.44 33.74 24.39 33.88 24.24 34.03C24.23 34.05 24.22 34.06 24.22 34.07L25.12 33.94C25.22 33.89 25.26 33.84 25.21 33.8C25.16 33.76 25.15 33.71 25.32 33.65C25.58 33.55 25.31 33.49 25.42 33.41C25.55 33.32 25.68 33.25 25.68 33.16C25.68 33.1 25.76 33.04 25.83 32.98C25.9 32.91 25.96 32.85 25.89 32.78C25.89 32.78 25.93 32.77 25.95 32.77C26.18 32.69 26.11 32.61 26.09 32.52C26.08 32.44 26.49 32.4 26.36 32.29C26.27 32.21 26.42 32.18 26.46 32.13C26.59 31.98 26.72 31.84 26.78 31.69C26.81 31.62 26.87 31.58 26.92 31.52C27.04 31.38 27.15 31.24 27.23 31.09C27.26 31.03 27.28 30.97 27.35 30.92C27.5 30.79 27.57 30.63 27.67 30.49C27.71 30.42 27.73 30.36 27.8 30.3C27.94 30.19 28.07 29.92 28.17 29.78C28.18 29.77 28.19 29.75 28.26 29.66L27.63 29.74C27.69 29.8 27.89 29.97 28.08 30.13C28.12 30.17 28.17 30.21 28.21 30.25C28.25 30.29 28.29 30.32 28.32 30.36C28.39 30.42 28.44 30.47 28.45 30.49C28.56 30.63 28.7 30.73 28.82 30.85C28.88 30.91 28.95 30.96 29 31.04C29.09 31.19 29.24 31.28 29.35 31.41C29.41 31.48 29.48 31.54 29.53 31.62C29.62 31.76 29.82 31.81 29.83 32.01C29.84 32.04 29.9 32.02 29.92 32.03C30.07 32.13 30.04 32.37 30.28 32.4C30.29 32.4 30.28 32.41 30.27 32.42C30.2 32.61 30.37 32.6 30.5 32.64C30.62 32.67 30.4 32.96 30.61 32.94C30.64 32.94 30.67 32.93 30.68 32.94C30.77 33.08 30.75 33.29 31 33.32C31 33.32 30.98 33.35 30.98 33.36C30.9 33.55 31.09 33.53 31.19 33.59C31.29 33.64 31.17 33.85 31.3 33.91C31.48 34 31.58 34.16 31.61 34.35C31.63 34.48 31.75 34.51 31.85 34.57C31.94 34.62 31.72 34.87 31.93 34.88C31.95 34.88 31.96 34.89 31.97 34.89C32.08 34.87 32.09 34.91 32.05 34.99C31.95 35.18 32.12 35.18 32.25 35.24C32.35 35.29 32.1 35.54 32.31 35.55C32.33 35.55 32.34 35.56 32.35 35.56C32.5 35.67 32.33 35.94 32.64 35.96C32.65 35.96 32.61 36 32.6 36.02C32.55 36.1 32.58 36.16 32.62 36.19L32.91 35.56C32.79 35.64 32.72 35.82 32.53 35.66C32.49 35.63 32.48 35.77 32.44 35.78C32.27 35.86 32.12 35.99 31.93 35.98C31.79 35.98 31.72 36.04 31.66 36.17C31.6 36.28 31.36 36.01 31.33 36.22C31.32 36.25 31.32 36.27 31.31 36.28C31.16 36.36 30.94 36.31 30.87 36.55C30.87 36.56 30.83 36.52 30.81 36.51C30.69 36.45 30.49 36.63 30.29 36.79C30.09 36.95 29.89 37.11 29.73 37.01C29.69 36.99 29.7 37.12 29.66 37.14C29.51 37.24 29.38 37.38 29.19 37.4C29.06 37.41 29.02 37.53 28.95 37.63C28.89 37.72 28.63 37.5 28.64 37.72C28.64 37.87 28.53 37.8 28.47 37.83C28.41 37.85 28.37 37.87 28.32 37.9L28.91 38.04C28.84 37.92 28.75 37.8 28.67 37.69C28.63 37.63 28.57 37.58 28.53 37.5C28.46 37.32 28.34 37.17 28.21 37.03C28.15 36.97 28.09 36.91 28.06 36.84C27.97 36.67 27.83 36.53 27.71 36.39C27.66 36.32 27.6 36.27 27.55 36.19C27.44 36.04 27.32 35.91 27.19 35.77C27.13 35.71 27.06 35.65 27.01 35.57C26.96 35.5 26.73 35.24 26.48 35C26.24 34.75 25.98 34.53 25.91 34.47C25.83 34.41 25.37 34 25.29 33.93C25.28 33.92 25.27 33.91 25.25 33.9L25.24 33.89C25.24 33.89 25.24 33.89 25.24 33.89C25.24 33.88 25.24 33.88 25.24 33.88C25.23 33.88 25.22 33.89 25.21 33.9C25.19 33.91 25.15 33.93 25.12 33.94L24.22 34.07C24.25 34.11 24.26 34.15 24.32 34.18C24.41 34.22 24.47 34.24 24.51 34.28C24.55 34.33 24.56 34.37 24.56 34.46Z" fill="#1B1918" fill-opacity="1.000000" fill-rule="nonzero"/>
		<path id="Vector" d="M34.58 16.88C34.57 16.79 34.58 16.68 34.55 16.58C34.5 16.44 34.46 16.32 34.45 16.2C34.44 16.08 34.45 15.95 34.51 15.81C34.55 15.69 34.55 15.58 34.54 15.48C34.53 15.37 34.49 15.27 34.45 15.17C34.41 15.07 34.37 14.97 34.34 14.88C34.31 14.78 34.28 14.69 34.28 14.6C34.27 14.39 34.28 14.19 34.26 13.99C34.23 13.78 34.19 13.58 34.1 13.36C34.04 13.22 33.99 13.06 33.95 12.91C33.94 12.83 33.92 12.75 33.9 12.67C33.89 12.59 33.86 12.51 33.84 12.43C33.8 12.27 33.75 12.11 33.69 11.96C33.62 11.81 33.54 11.67 33.43 11.54C33.42 11.53 33.43 11.48 33.43 11.44C33.44 11.32 33.41 11.22 33.38 11.12C33.35 11.02 33.3 10.93 33.25 10.84C33.15 10.66 33.01 10.5 32.87 10.33C32.82 10.25 32.78 10.16 32.75 10.07C32.72 9.97 32.7 9.87 32.67 9.77C32.65 9.67 32.61 9.56 32.56 9.47C32.51 9.37 32.44 9.29 32.34 9.22C32.2 9.13 32.13 9.02 32.07 8.9C32 8.79 31.95 8.66 31.87 8.55C31.44 7.93 30.97 7.32 30.41 6.82C30.3 6.71 30.19 6.62 30.09 6.52C29.99 6.42 29.89 6.31 29.78 6.21C29.25 5.7 28.65 5.24 28.02 4.86C27.89 4.79 27.77 4.72 27.65 4.65C27.53 4.58 27.4 4.5 27.27 4.42C27.2 4.37 27.12 4.32 27.04 4.27C26.96 4.22 26.88 4.18 26.8 4.13C26.72 4.09 26.64 4.05 26.56 4C26.52 3.98 26.47 3.96 26.43 3.94L26.31 3.88C26.13 3.81 25.96 3.73 25.79 3.66C25.62 3.6 25.45 3.53 25.27 3.47C25.13 3.41 24.98 3.37 24.84 3.33C24.7 3.28 24.55 3.23 24.4 3.17C24.23 3.11 24.03 3.05 23.81 2.98C23.59 2.93 23.35 2.87 23.11 2.82C22.87 2.78 22.62 2.74 22.4 2.71C22.17 2.68 21.96 2.66 21.78 2.63C21.76 2.63 21.72 2.62 21.67 2.62C21.62 2.61 21.56 2.61 21.49 2.6C21.33 2.59 21.13 2.57 20.9 2.56C20.67 2.56 20.41 2.55 20.13 2.55C19.99 2.55 19.85 2.56 19.7 2.56C19.63 2.56 19.56 2.56 19.48 2.57C19.41 2.57 19.34 2.58 19.26 2.58C19.12 2.59 18.97 2.61 18.82 2.62C18.68 2.63 18.54 2.65 18.4 2.67C18.26 2.69 18.13 2.7 18 2.72C17.87 2.74 17.75 2.77 17.63 2.79C17.52 2.81 17.41 2.83 17.32 2.84C17.22 2.86 17.13 2.88 17.06 2.9C16.91 2.93 16.81 2.96 16.77 2.96L16.64 2.99L16.51 3.02C16.42 3.05 16.34 3.07 16.25 3.09L16 3.16C15.92 3.18 15.83 3.22 15.75 3.25C15.58 3.3 15.42 3.36 15.25 3.42C15.09 3.49 14.92 3.55 14.76 3.62C14.72 3.63 14.68 3.65 14.64 3.67L14.53 3.72C14.45 3.76 14.37 3.79 14.29 3.83C14.14 3.9 13.98 3.97 13.82 4.04C13.66 4.11 13.51 4.19 13.36 4.26C13.21 4.35 13.06 4.43 12.91 4.52C12.76 4.61 12.62 4.71 12.48 4.8C12.34 4.9 12.19 4.99 12.05 5.09C11.9 5.19 11.76 5.3 11.61 5.41C11.47 5.52 11.33 5.63 11.18 5.74C11.15 5.76 11.11 5.79 11.08 5.81L10.99 5.9C10.92 5.95 10.86 6.01 10.8 6.06C10.68 6.18 10.56 6.29 10.44 6.41C10.33 6.53 10.21 6.65 10.08 6.76C9.96 6.87 9.83 6.99 9.7 7.09C9.63 7.14 9.61 7.25 9.56 7.33C9.45 7.46 9.34 7.59 9.22 7.71C9.11 7.84 9 7.97 8.88 8.1C8.83 8.16 8.77 8.23 8.72 8.3C8.67 8.36 8.62 8.43 8.57 8.51C8.48 8.65 8.4 8.8 8.34 8.96C8.34 8.97 8.31 8.98 8.3 8.99C8.11 9.13 7.99 9.3 7.9 9.48C7.82 9.67 7.77 9.87 7.7 10.08C7.65 10.25 7.5 10.39 7.35 10.55C7.28 10.63 7.22 10.71 7.17 10.81C7.11 10.91 7.08 11.01 7.07 11.14C7.07 11.19 7.07 11.25 7.05 11.3C6.99 11.45 6.92 11.6 6.85 11.75L6.75 11.97C6.72 12.04 6.69 12.12 6.66 12.19C6.6 12.35 6.54 12.5 6.51 12.66C6.47 12.82 6.45 12.98 6.46 13.15C6.46 13.17 6.41 13.2 6.39 13.23C6.11 13.61 6.19 14.03 6.18 14.45C6.17 14.55 6.15 14.65 6.12 14.74C6.1 14.84 6.06 14.94 6.03 15.04C6 15.14 5.96 15.25 5.94 15.37C5.92 15.48 5.91 15.6 5.92 15.73C5.92 15.82 5.93 15.9 5.93 15.99C5.93 16.08 5.93 16.17 5.94 16.26C5.95 16.43 5.95 16.61 5.95 16.79C5.94 16.88 5.95 16.97 5.94 17.06C5.94 17.15 5.94 17.24 5.94 17.32C5.93 17.5 5.92 17.68 5.9 17.85C5.88 18.32 5.98 18.67 6.08 19.08C6.12 19.25 6.07 19.45 6.06 19.66C6.03 19.87 6.03 20.09 6.15 20.3C6.17 20.33 6.18 20.37 6.2 20.39C6.33 20.54 6.35 20.68 6.3 20.89C6.25 21.11 6.3 21.31 6.36 21.51C6.4 21.6 6.44 21.7 6.49 21.79C6.53 21.89 6.58 21.98 6.63 22.08C6.67 22.16 6.69 22.25 6.69 22.35C6.7 22.44 6.69 22.55 6.7 22.65C6.71 22.86 6.73 23.08 6.89 23.27C6.91 23.3 6.93 23.33 6.95 23.36C7.1 23.65 7.15 23.98 7.25 24.29C7.3 24.44 7.36 24.6 7.43 24.74C7.51 24.88 7.6 25.02 7.73 25.13C7.74 25.15 7.72 25.23 7.73 25.29C7.74 25.47 7.81 25.63 7.89 25.78C7.93 25.86 7.97 25.93 8.02 26.01L8.1 26.12L8.18 26.23C8.28 26.37 8.39 26.51 8.46 26.67C8.54 26.83 8.61 26.99 8.63 27.18C8.64 27.28 8.85 27.41 8.95 27.54C9.13 27.82 9.33 28.1 9.53 28.38C9.63 28.51 9.72 28.65 9.82 28.79C9.91 28.93 10 29.07 10.09 29.21C10.2 29.41 10.33 29.57 10.46 29.72C10.53 29.79 10.6 29.86 10.67 29.93C10.75 30 10.83 30.06 10.92 30.13C11.06 30.24 11.13 30.43 11.23 30.62C11.32 30.8 11.44 30.99 11.66 31.1C11.7 31.12 11.76 31.14 11.8 31.18C11.91 31.29 12.02 31.41 12.13 31.53L12.29 31.71C12.34 31.77 12.4 31.83 12.46 31.89C12.57 32 12.69 32.11 12.81 32.22C12.94 32.31 13.08 32.4 13.23 32.47C13.26 32.48 13.27 32.56 13.29 32.61C13.38 32.76 13.63 32.97 13.95 33.22C14.11 33.35 14.29 33.47 14.48 33.61C14.67 33.74 14.88 33.87 15.08 34C15.91 34.52 16.75 34.99 16.97 35.28C17.03 35.37 17.28 35.37 17.42 35.45C18.04 35.77 18.68 36.04 19.26 36.37C19.36 36.43 19.46 36.48 19.56 36.53C19.58 36.54 19.61 36.55 19.63 36.56L19.68 36.57C19.69 36.58 19.71 36.59 19.73 36.59C19.8 36.61 19.87 36.62 19.93 36.63C20.21 36.67 20.48 36.61 20.72 36.48C20.75 36.47 20.77 36.46 20.79 36.45C20.81 36.44 20.83 36.43 20.85 36.42C20.9 36.41 20.94 36.4 20.99 36.39C21.09 36.37 21.19 36.35 21.3 36.34C21.4 36.32 21.51 36.3 21.61 36.25C21.7 36.21 21.79 36.15 21.87 36.06C21.97 35.94 22.08 35.88 22.19 35.84C22.31 35.8 22.43 35.77 22.55 35.71C23.22 35.41 23.86 35 24.49 34.6C24.61 34.52 24.72 34.44 24.84 34.36C24.95 34.28 25.07 34.2 25.2 34.11C25.35 34.02 25.51 33.92 25.66 33.82C25.81 33.71 25.95 33.6 26.1 33.49C26.39 33.28 26.67 33.03 26.94 32.8C27.18 32.59 27.38 32.39 27.63 32.19C27.9 31.96 28.17 31.72 28.42 31.47C28.54 31.34 28.67 31.21 28.79 31.08C28.91 30.95 29.03 30.82 29.15 30.69C29.26 30.57 29.36 30.44 29.46 30.32C29.57 30.2 29.68 30.08 29.79 29.95C30.01 29.69 30.24 29.43 30.44 29.14C30.54 29 30.65 28.86 30.75 28.72C30.85 28.58 30.95 28.43 31.04 28.29C31.14 28.15 31.23 28.01 31.32 27.86C31.41 27.72 31.51 27.58 31.6 27.43C31.65 27.36 31.72 27.24 31.82 27.07C31.87 26.99 31.93 26.9 31.99 26.8C32.04 26.7 32.1 26.59 32.17 26.47C32.23 26.36 32.3 26.23 32.37 26.1C32.43 25.97 32.5 25.84 32.57 25.7C32.71 25.42 32.84 25.12 32.97 24.82C33.5 23.63 33.85 22.36 33.92 22.03C33.93 21.99 33.95 21.91 33.97 21.82C34 21.72 34.02 21.6 34.05 21.46C34.08 21.32 34.12 21.17 34.15 21.01C34.18 20.85 34.22 20.68 34.25 20.52C34.26 20.43 34.28 20.35 34.29 20.26C34.31 20.18 34.32 20.1 34.33 20.02C34.36 19.86 34.38 19.7 34.4 19.56C34.44 19.29 34.46 19.07 34.47 18.98C34.51 18.66 34.51 18.34 34.53 18.02C34.54 17.86 34.54 17.7 34.55 17.54C34.56 17.38 34.57 17.21 34.58 17.05C34.59 16.99 34.59 16.94 34.58 16.88ZM16.25 17.83C16.16 17.61 16.02 17.43 15.91 17.23C15.87 17.14 15.81 17.07 15.79 16.97C15.78 16.91 15.77 16.85 15.74 16.79C15.72 16.72 15.7 16.65 15.67 16.58C15.65 16.51 15.62 16.44 15.6 16.37C15.58 16.3 15.56 16.24 15.55 16.18C15.54 16.13 15.46 15.78 15.44 15.41C15.44 15.32 15.44 15.23 15.43 15.14C15.44 15.06 15.44 14.98 15.44 14.91C15.45 14.76 15.46 14.66 15.47 14.63C15.52 14.42 15.53 14.21 15.58 13.99C15.59 13.94 15.61 13.89 15.62 13.84C15.63 13.79 15.64 13.74 15.67 13.69C15.77 13.5 15.81 13.29 15.91 13.1C15.93 13.05 15.95 13 15.98 12.95C16 12.9 16.03 12.85 16.06 12.81C16.09 12.77 16.12 12.72 16.14 12.67C16.16 12.63 16.18 12.58 16.21 12.53C16.25 12.44 16.32 12.36 16.42 12.31C16.45 12.3 16.41 12.23 16.43 12.21C16.45 12.16 16.48 12.12 16.52 12.08C16.56 12.04 16.61 12.01 16.65 11.98C16.69 11.94 16.73 11.91 16.76 11.86C16.79 11.82 16.81 11.77 16.82 11.7C16.82 11.7 16.83 11.7 16.84 11.7C16.95 11.72 17 11.68 17.03 11.62C17.06 11.57 17.07 11.48 17.1 11.41C17.12 11.34 17.21 11.36 17.29 11.36C17.38 11.37 17.45 11.36 17.46 11.25C17.46 11.22 17.46 11.19 17.47 11.18C17.55 11.13 17.66 11.1 17.75 11.06C17.85 11.02 17.93 10.96 17.97 10.83C17.98 10.83 18 10.85 18.02 10.86C18.22 10.95 18.25 10.76 18.35 10.65C18.4 10.6 18.47 10.62 18.55 10.63C18.62 10.65 18.7 10.66 18.76 10.6C18.93 10.44 19.17 10.38 19.4 10.43C19.47 10.44 19.54 10.42 19.59 10.39C19.65 10.37 19.71 10.32 19.77 10.29C19.83 10.26 19.89 10.32 19.96 10.37C20.03 10.42 20.09 10.45 20.16 10.36C20.17 10.35 20.18 10.35 20.19 10.33C20.24 10.22 20.29 10.24 20.35 10.32C20.42 10.41 20.48 10.42 20.54 10.4C20.6 10.39 20.67 10.33 20.74 10.3C20.8 10.27 20.86 10.35 20.91 10.41C20.97 10.47 21.02 10.53 21.11 10.45C21.12 10.44 21.13 10.43 21.15 10.43C21.25 10.41 21.34 10.48 21.43 10.53C21.53 10.58 21.62 10.61 21.75 10.52C21.76 10.51 21.77 10.57 21.78 10.59C21.84 10.74 21.95 10.72 22.08 10.72C22.2 10.72 22.32 10.73 22.34 10.92C22.35 10.97 22.47 10.89 22.51 10.91C22.7 11 22.93 11.07 23.04 11.26C23.09 11.32 23.13 11.37 23.19 11.4C23.22 11.41 23.25 11.42 23.28 11.43C23.31 11.44 23.35 11.45 23.39 11.45C23.46 11.46 23.46 11.55 23.47 11.64C23.48 11.72 23.49 11.8 23.61 11.78C23.63 11.78 23.66 11.78 23.67 11.79C23.71 11.82 23.74 11.87 23.76 11.91C23.79 11.95 23.81 12 23.84 12.04C23.9 12.12 23.96 12.2 24.1 12.22C24.11 12.22 24.08 12.27 24.08 12.29C24.05 12.44 24.27 12.64 24.46 12.89C24.5 12.96 24.55 13.02 24.59 13.08C24.63 13.15 24.66 13.21 24.68 13.27C24.73 13.39 24.74 13.5 24.68 13.57C24.65 13.61 24.78 13.64 24.8 13.69C24.87 13.89 24.99 14.1 24.94 14.32C24.93 14.39 24.94 14.46 24.97 14.52C25 14.57 25.04 14.63 25.07 14.7C25.1 14.75 25.03 14.82 24.99 14.88C24.94 14.95 24.91 15.02 25 15.08C25.14 15.17 25.02 15.24 25 15.32C24.96 15.55 24.97 15.79 24.92 16.02C24.91 16.11 24.91 16.19 24.87 16.28C24.78 16.49 24.72 16.71 24.65 16.93C24.63 17.02 24.6 17.11 24.54 17.19C24.41 17.37 24.33 17.58 24.21 17.77C24.15 17.85 24.1 17.94 24.04 18.02C23.89 18.18 23.76 18.35 23.61 18.51C23.57 18.54 23.53 18.58 23.5 18.62C23.46 18.66 23.42 18.69 23.37 18.72C23.29 18.79 22.98 19.04 22.62 19.24C22.58 19.27 22.54 19.29 22.49 19.32C22.45 19.34 22.41 19.37 22.36 19.39C22.28 19.43 22.2 19.47 22.12 19.51C22.05 19.54 21.98 19.57 21.92 19.59C21.87 19.62 21.83 19.63 21.81 19.64C21.78 19.65 21.72 19.68 21.63 19.7C21.55 19.73 21.45 19.76 21.34 19.78C21.29 19.79 21.24 19.81 21.19 19.82C21.14 19.82 21.09 19.83 21.05 19.84C20.97 19.86 20.9 19.86 20.87 19.86C20.82 19.87 20.77 19.87 20.72 19.88C20.67 19.89 20.63 19.9 20.58 19.9C20.48 19.92 20.38 19.92 20.27 19.89C20.26 19.89 20.24 19.89 20.22 19.9C20.19 19.9 20.16 19.89 20.13 19.92C20.04 20.01 19.97 20.05 19.89 19.91C19.83 19.81 19.76 19.85 19.69 19.89C19.62 19.93 19.55 20 19.5 19.96C19.37 19.87 19.28 19.78 19.13 19.81C19.02 19.84 18.93 19.77 18.84 19.72C18.75 19.67 18.66 19.63 18.53 19.71C18.52 19.71 18.52 19.67 18.51 19.66C18.48 19.55 18.43 19.52 18.36 19.52C18.3 19.51 18.22 19.53 18.14 19.54C18.07 19.55 18.05 19.45 18.02 19.38C17.98 19.3 17.95 19.23 17.84 19.29C17.7 19.35 17.69 19.21 17.62 19.16C17.43 19.02 17.26 18.86 17.06 18.74C16.97 18.69 16.93 18.62 16.87 18.55C16.72 18.38 16.57 18.2 16.41 18.04C16.34 17.98 16.28 17.92 16.25 17.83Z" fill="#1B1918" fill-opacity="1.000000" fill-rule="nonzero"/>
	</g>
</svg>
