<svg width="229.000000" height="64.000000" viewBox="0 0 229 64" fill="none" xmlns="http://www.w3.org/2000/svg" xmlns:xlink="http://www.w3.org/1999/xlink">
	<desc>
			Created with Pixso.
	</desc>
	<defs/>
	<path id="How long?" d="M57.65 44L58.83 44L58.83 34.25L57.65 34.25L57.65 44ZM84.14 40.2Q83.98 40.64 83.97 41.39L85.14 41.39Q85.14 40.43 85.6 39.91L86.29 39.23Q87.29 38.18 87.32 37.11Q87.32 37.08 87.32 37.04Q87.32 36.15 86.9 35.56Q86.79 35.4 86.65 35.27Q86.6 35.21 86.53 35.16Q85.88 34.63 84.78 34.63Q83.8 34.63 83.13 35.09Q83.01 35.17 82.91 35.26Q82.62 35.51 82.45 35.82Q82.18 36.29 82.18 36.92L83.35 36.92Q83.35 36.54 83.51 36.27Q83.6 36.12 83.74 36Q83.78 35.96 83.82 35.93Q84.2 35.65 84.78 35.65Q85.36 35.65 85.7 35.94Q85.75 35.98 85.8 36.03Q85.82 36.06 85.84 36.08Q86.15 36.45 86.15 37.08Q86.15 37.22 86.13 37.36Q86.04 37.89 85.62 38.37L84.78 39.23Q84.3 39.76 84.14 40.2ZM33.95 44L35.17 44L35.17 34.75L33.95 34.75L33.95 38.73L29.29 38.73L29.29 34.75L28.07 34.75L28.07 44L29.29 44L29.29 39.72L33.95 39.72L33.95 44ZM37.24 38.68Q36.84 39.49 36.84 40.5L36.84 40.58Q36.84 41.98 37.51 42.9Q37.6 43.03 37.71 43.15Q38.05 43.53 38.47 43.77Q39.13 44.12 39.97 44.12Q40.72 44.12 41.33 43.83Q41.48 43.76 41.61 43.68Q41.85 43.53 42.06 43.34Q42.46 42.96 42.71 42.44Q43.09 41.64 43.09 40.64L43.09 40.55Q43.09 39.12 42.41 38.19Q42.32 38.08 42.23 37.97Q41.89 37.59 41.47 37.36Q40.81 37 39.96 37Q39.25 37 38.66 37.27Q38.5 37.34 38.34 37.44Q38.16 37.55 38 37.68Q37.53 38.08 37.24 38.68ZM60.79 38.68Q60.4 39.49 60.4 40.5L60.4 40.58Q60.4 41.98 61.06 42.9Q61.16 43.03 61.26 43.15Q61.61 43.53 62.03 43.77Q62.68 44.12 63.53 44.12Q64.28 44.12 64.89 43.83Q65.03 43.76 65.17 43.68Q65.41 43.53 65.61 43.34Q66.01 42.96 66.26 42.44Q66.65 41.64 66.65 40.64L66.65 40.55Q66.65 39.12 65.96 38.19Q65.88 38.08 65.78 37.97Q65.45 37.59 65.03 37.36Q64.37 37 63.51 37Q62.8 37 62.21 37.27Q62.05 37.34 61.9 37.44Q61.72 37.55 61.56 37.68Q61.09 38.08 60.79 38.68ZM69.27 37.99L69.23 37.13L68.12 37.13L68.12 44L69.3 44L69.3 39.1Q69.46 38.77 69.7 38.53Q69.82 38.4 69.97 38.3Q70.09 38.21 70.23 38.15Q70.57 38 70.97 38Q71.67 38 72 38.34Q72.01 38.35 72.01 38.35Q72.34 38.71 72.35 39.45L72.35 44L73.52 44L73.52 39.46Q73.51 38.08 72.82 37.47Q72.28 37 71.33 37Q70.69 37 70.17 37.25Q69.66 37.5 69.27 37.99ZM75.76 37.95Q75.01 38.9 75.01 40.5Q75.01 42.18 75.76 43.15Q76.15 43.66 76.66 43.9Q77.13 44.12 77.71 44.12Q78.54 44.12 79.13 43.75Q79.41 43.57 79.64 43.31L79.64 43.9Q79.64 44.69 79.25 45.15Q79.21 45.21 79.16 45.26Q79.09 45.32 79.02 45.38Q78.56 45.74 77.82 45.74Q77.41 45.74 77.05 45.61Q76.45 45.39 75.97 44.81L75.36 45.51Q75.37 45.52 75.38 45.54Q75.75 46.07 76.45 46.38Q77 46.63 77.56 46.68Q77.73 46.7 77.9 46.7Q78.99 46.7 79.72 46.19Q79.88 46.07 80.03 45.93Q80.19 45.78 80.31 45.6Q80.82 44.89 80.82 43.83L80.82 37.13L79.74 37.13L79.69 37.89Q79.43 37.56 79.1 37.36Q78.52 37 77.73 37Q77.09 37 76.58 37.26Q76.11 37.49 75.76 37.95ZM51.97 37.13L50.65 42.38L49.02 37.13L48.07 37.13L46.47 42.27L45.12 37.13L43.95 37.13L45.94 44L46.89 44L48.52 38.79L50.19 44L51.14 44L53.14 37.13L51.97 37.13ZM38.55 42.47Q38.02 41.78 38.02 40.64Q38.02 39.35 38.55 38.66Q38.82 38.31 39.18 38.13Q39.53 37.96 39.96 37.96Q40.41 37.96 40.77 38.15Q41.12 38.32 41.38 38.67Q41.92 39.37 41.92 40.5Q41.92 41.76 41.39 42.46Q41.14 42.8 40.81 42.97Q40.44 43.16 39.97 43.16Q39.5 43.16 39.14 42.97Q38.8 42.8 38.55 42.47ZM62.11 42.47Q61.58 41.78 61.58 40.64Q61.58 39.35 62.11 38.66Q62.38 38.31 62.74 38.13Q63.08 37.96 63.51 37.96Q63.96 37.96 64.33 38.15Q64.67 38.32 64.94 38.67Q65.47 39.37 65.47 40.5Q65.47 41.76 64.95 42.46Q64.7 42.8 64.36 42.97Q64 43.16 63.53 43.16Q63.06 43.16 62.69 42.97Q62.36 42.8 62.11 42.47ZM76.67 42.46Q76.2 41.8 76.2 40.64Q76.2 39.33 76.68 38.66Q76.9 38.36 77.19 38.2Q77.55 38 78.02 38Q78.52 38 78.9 38.21Q79.35 38.45 79.64 38.98L79.64 42.12Q79.37 42.64 78.93 42.89Q78.54 43.13 78 43.13Q77.53 43.13 77.17 42.92Q76.88 42.76 76.67 42.46ZM83.99 43.06Q83.91 43.21 83.91 43.4Q83.91 43.6 84 43.76Q84.04 43.82 84.09 43.88Q84.1 43.89 84.12 43.91Q84.29 44.06 84.61 44.06Q84.92 44.06 85.09 43.91Q85.11 43.89 85.13 43.88Q85.18 43.82 85.22 43.75Q85.3 43.6 85.3 43.4Q85.3 43.22 85.23 43.07Q85.19 42.99 85.13 42.93Q85.1 42.9 85.08 42.88Q84.91 42.73 84.61 42.73Q84.31 42.73 84.13 42.88Q84.11 42.9 84.09 42.93Q84.03 42.99 83.99 43.06Z" fill="#090808" fill-opacity="1.000000" fill-rule="evenodd"/>
	<path id="Dates" d="M26.99 14.46L26.99 23L29.35 23Q30.5 22.98 31.36 22.5Q31.72 22.3 32.01 22.02Q32.42 21.64 32.69 21.1Q33.16 20.19 33.16 18.99L33.16 18.44Q33.15 17.26 32.68 16.36Q32.4 15.81 31.98 15.41Q31.7 15.15 31.36 14.96Q31.3 14.92 31.24 14.89Q30.43 14.46 29.39 14.46L26.99 14.46ZM42.68 16.66L42.68 15.12L41.6 15.12L41.6 16.66L40.44 16.66L40.44 17.49L41.6 17.49L41.6 21.42Q41.6 22.23 41.97 22.67Q42.04 22.76 42.12 22.82Q42.48 23.11 43.06 23.11Q43.47 23.11 43.9 23L43.9 22.12Q43.57 22.19 43.38 22.19Q43 22.19 42.84 22Q42.84 22 42.84 22Q42.68 21.81 42.68 21.42L42.68 17.49L43.87 17.49L43.87 16.66L42.68 16.66ZM28.11 22.08L28.11 15.39L29.42 15.39Q30.35 15.4 30.96 15.84Q31.18 16 31.36 16.21Q32.04 17.01 32.04 18.47L32.04 18.96Q32.04 20.46 31.32 21.27Q31.15 21.46 30.94 21.61Q30.28 22.08 29.29 22.08L28.11 22.08ZM38.45 22.33Q38.5 22.81 38.6 23L39.74 23L39.74 22.9Q39.51 22.39 39.51 21.51L39.51 18.59Q39.5 17.9 39.16 17.42Q39.04 17.24 38.87 17.09Q38.86 17.08 38.86 17.07Q38.24 16.54 37.15 16.54Q36.46 16.54 35.89 16.79Q35.89 16.79 35.88 16.8Q35.31 17.05 34.97 17.49Q34.97 17.49 34.97 17.5Q34.68 17.88 34.64 18.29Q34.63 18.35 34.63 18.41L35.72 18.41Q35.72 18.29 35.76 18.17Q35.84 17.91 36.11 17.7Q36.15 17.67 36.2 17.65Q36.57 17.41 37.09 17.41Q37.74 17.41 38.08 17.74Q38.08 17.74 38.09 17.75Q38.16 17.82 38.22 17.91Q38.43 18.21 38.43 18.65L38.43 19.15L37.37 19.15Q36.01 19.15 35.26 19.7Q34.94 19.93 34.75 20.25Q34.5 20.67 34.5 21.24Q34.5 21.66 34.67 22.01Q34.82 22.33 35.1 22.58Q35.22 22.69 35.36 22.77Q35.89 23.11 36.64 23.11Q37.1 23.11 37.5 22.96Q38.02 22.77 38.45 22.33ZM46.28 22.75Q46.92 23.11 47.76 23.11Q48.71 23.11 49.38 22.68Q49.83 22.38 50.15 21.89L49.49 21.37Q49.23 21.71 48.89 21.93Q48.84 21.96 48.79 21.99Q48.4 22.23 47.82 22.23Q47.37 22.23 47.01 22.05Q46.72 21.91 46.49 21.65Q46.41 21.57 46.35 21.48Q45.96 20.94 45.94 20.14L50.24 20.14L50.24 19.68Q50.24 18.17 49.55 17.35Q49.35 17.11 49.1 16.94Q48.5 16.54 47.63 16.54Q47.3 16.54 46.99 16.62Q46.59 16.72 46.22 16.96Q46.05 17.07 45.89 17.21Q45.48 17.58 45.22 18.12Q44.86 18.86 44.86 19.8L44.86 20Q44.86 21.17 45.41 21.95Q45.52 22.12 45.66 22.27Q45.95 22.56 46.28 22.75ZM55.07 20.87Q55.18 21.06 55.18 21.31Q55.18 21.49 55.12 21.63Q55.03 21.83 54.81 21.98Q54.44 22.23 53.82 22.23Q53.15 22.23 52.75 21.91Q52.57 21.77 52.47 21.6Q52.33 21.36 52.31 21.04L51.23 21.04Q51.23 21.26 51.27 21.46Q51.35 21.79 51.56 22.09Q51.61 22.17 51.68 22.25Q51.99 22.62 52.47 22.84Q53.06 23.11 53.82 23.11Q54.91 23.11 55.58 22.6Q55.93 22.34 56.1 22Q56.26 21.66 56.26 21.24Q56.26 20.75 56.04 20.41Q56.03 20.39 56.02 20.37Q55.78 20.02 55.27 19.77Q54.77 19.51 53.96 19.33Q53.15 19.15 52.84 18.95Q52.7 18.87 52.63 18.74Q52.53 18.58 52.53 18.36Q52.53 18.16 52.6 18Q52.69 17.82 52.86 17.69Q53.19 17.43 53.79 17.43Q54.24 17.43 54.57 17.63Q54.66 17.68 54.74 17.75Q54.99 17.96 55.07 18.22Q55.12 18.36 55.12 18.52L56.21 18.52Q56.21 18.09 56.04 17.74Q55.88 17.38 55.54 17.09Q55.48 17.05 55.43 17.01Q54.78 16.54 53.79 16.54Q52.88 16.54 52.26 16.96Q52.18 17.01 52.1 17.08Q51.69 17.41 51.54 17.84Q51.44 18.1 51.44 18.4Q51.44 18.8 51.61 19.11Q51.64 19.16 51.67 19.2Q51.91 19.54 52.39 19.79Q52.87 20.04 53.7 20.21Q54.52 20.39 54.85 20.63Q54.99 20.73 55.07 20.87ZM47.02 17.55Q47.29 17.43 47.63 17.43Q48.08 17.43 48.41 17.63Q48.57 17.73 48.71 17.88Q49.1 18.34 49.15 19.16L49.15 19.25L45.98 19.25Q46.08 18.38 46.53 17.91Q46.75 17.67 47.02 17.55ZM37.17 22.13Q36.99 22.17 36.8 22.17Q36.34 22.17 36.03 21.96Q35.97 21.92 35.93 21.88Q35.82 21.79 35.75 21.68Q35.59 21.44 35.59 21.08Q35.59 20.79 35.72 20.57Q36.1 19.92 37.58 19.92L38.43 19.92L38.43 21.22Q38.39 21.29 38.35 21.36Q38.15 21.69 37.77 21.91Q37.48 22.07 37.17 22.13Z" fill="#787573" fill-opacity="1.000000" fill-rule="evenodd"/>
	<rect id="Rectangle" y="14.000000" width="1.000000" height="36.000000" fill="#CECDCA" fill-opacity="1.000000"/>
</svg>
