<svg width="239.000000" height="64.000000" viewBox="0 0 239 64" fill="none" xmlns="http://www.w3.org/2000/svg" xmlns:xlink="http://www.w3.org/1999/xlink">
	<desc>
			Created with Pixso.
	</desc>
	<defs/>
	<path id="Location" d="M54.92 14.66Q54.85 14.8 54.85 14.97Q54.85 15.15 54.93 15.29Q54.96 15.36 55.01 15.41Q55.03 15.43 55.05 15.45Q55.21 15.59 55.49 15.59Q55.77 15.59 55.93 15.45Q55.95 15.43 55.97 15.41Q56.02 15.35 56.06 15.29Q56.13 15.15 56.13 14.97Q56.13 14.8 56.07 14.67Q56.03 14.59 55.97 14.53Q55.95 14.5 55.92 14.48Q55.76 14.35 55.49 14.35Q55.22 14.35 55.06 14.48Q55.03 14.5 55.01 14.53Q54.96 14.59 54.92 14.66ZM30.16 22.08L26.12 22.08L26.12 14.46L24.99 14.46L24.99 23L30.16 23L30.16 22.08ZM52.4 16.66L52.4 15.12L51.31 15.12L51.31 16.66L50.16 16.66L50.16 17.49L51.31 17.49L51.31 21.42Q51.31 22.23 51.68 22.67Q51.75 22.76 51.83 22.82Q52.19 23.11 52.78 23.11Q53.18 23.11 53.61 23L53.61 22.12Q53.28 22.19 53.09 22.19Q52.72 22.19 52.56 22Q52.56 22 52.55 22Q52.4 21.81 52.4 21.42L52.4 17.49L53.58 17.49L53.58 16.66L52.4 16.66ZM31.35 18.09Q30.99 18.83 30.99 19.77L30.99 19.84Q30.99 21.14 31.6 21.99Q31.69 22.11 31.79 22.22Q32.1 22.57 32.49 22.78Q33.09 23.11 33.87 23.11Q34.57 23.11 35.13 22.84Q35.26 22.78 35.39 22.7Q35.61 22.56 35.8 22.39Q36.17 22.04 36.4 21.56Q36.76 20.82 36.76 19.9L36.76 19.82Q36.76 18.5 36.12 17.64Q36.05 17.53 35.96 17.43Q35.65 17.09 35.26 16.87Q34.65 16.54 33.86 16.54Q33.21 16.54 32.66 16.79Q32.51 16.85 32.37 16.94Q32.21 17.04 32.06 17.17Q31.62 17.54 31.35 18.09ZM41.29 22.11Q41 22.23 40.66 22.23Q40.12 22.23 39.74 21.98Q39.53 21.84 39.37 21.64Q38.92 21.04 38.92 19.95L38.92 19.74Q38.92 18.62 39.37 18.02Q39.54 17.8 39.77 17.66Q40.14 17.43 40.65 17.43Q41.03 17.43 41.34 17.58Q41.53 17.67 41.69 17.82Q41.84 17.97 41.95 18.15Q42.12 18.45 42.15 18.83L43.18 18.83Q43.15 18.21 42.87 17.72Q42.7 17.42 42.43 17.18Q42.22 16.99 41.99 16.86Q41.42 16.54 40.65 16.54Q39.83 16.54 39.22 16.89Q39.18 16.91 39.15 16.94Q38.95 17.06 38.78 17.22Q38.41 17.56 38.17 18.06Q37.83 18.78 37.83 19.7L37.83 19.88Q37.83 21.33 38.55 22.19Q38.57 22.22 38.6 22.25Q38.85 22.54 39.17 22.73Q39.79 23.11 40.66 23.11Q40.97 23.11 41.26 23.04Q41.58 22.97 41.88 22.82Q42.35 22.58 42.66 22.22Q42.74 22.13 42.8 22.03Q43.08 21.64 43.16 21.2Q43.17 21.1 43.18 21L42.15 21Q42.13 21.21 42.05 21.4Q41.93 21.67 41.67 21.88Q41.49 22.02 41.29 22.11ZM48.16 22.33Q48.22 22.81 48.31 23L49.45 23L49.45 22.9Q49.23 22.39 49.23 21.51L49.23 18.59Q49.21 17.9 48.88 17.42Q48.75 17.24 48.58 17.09Q48.57 17.08 48.57 17.07Q47.95 16.54 46.86 16.54Q46.18 16.54 45.6 16.79Q45.6 16.79 45.6 16.8Q45.02 17.05 44.69 17.49Q44.68 17.49 44.68 17.5Q44.39 17.88 44.35 18.29Q44.34 18.35 44.34 18.41L45.43 18.41Q45.43 18.29 45.47 18.17Q45.55 17.91 45.83 17.7Q45.87 17.67 45.91 17.65Q46.28 17.41 46.8 17.41Q47.45 17.41 47.79 17.74Q47.8 17.74 47.8 17.75Q47.88 17.82 47.94 17.91Q48.14 18.21 48.14 18.65L48.14 19.15L47.09 19.15Q45.72 19.15 44.97 19.7Q44.65 19.93 44.46 20.25Q44.22 20.67 44.22 21.24Q44.22 21.66 44.38 22.01Q44.53 22.33 44.82 22.58Q44.94 22.69 45.07 22.77Q45.6 23.11 46.35 23.11Q46.81 23.11 47.22 22.96Q47.73 22.77 48.16 22.33ZM57.84 18.09Q57.47 18.83 57.47 19.77L57.47 19.84Q57.47 21.14 58.09 21.99Q58.17 22.11 58.27 22.22Q58.59 22.57 58.98 22.78Q59.58 23.11 60.36 23.11Q61.05 23.11 61.62 22.84Q61.75 22.78 61.87 22.7Q62.1 22.56 62.29 22.39Q62.65 22.04 62.89 21.56Q63.24 20.82 63.24 19.9L63.24 19.82Q63.24 18.5 62.61 17.64Q62.53 17.53 62.44 17.43Q62.13 17.09 61.74 16.87Q61.14 16.54 60.35 16.54Q59.69 16.54 59.15 16.79Q59 16.85 58.86 16.94Q58.69 17.04 58.54 17.17Q58.11 17.54 57.84 18.09ZM65.66 17.45L65.63 16.66L64.6 16.66L64.6 23L65.68 23L65.68 18.48Q65.83 18.17 66.06 17.95Q66.17 17.83 66.31 17.74Q66.42 17.66 66.55 17.6Q66.86 17.46 67.23 17.46Q67.88 17.46 68.18 17.78Q68.19 17.78 68.19 17.79Q68.5 18.11 68.5 18.8L68.5 23L69.59 23L69.59 18.81Q69.58 17.53 68.94 16.98Q68.44 16.54 67.56 16.54Q66.97 16.54 66.49 16.77Q66.02 17 65.66 17.45ZM54.94 23L56.02 23L56.02 16.66L54.94 16.66L54.94 23ZM32.56 21.59Q32.08 20.95 32.08 19.9Q32.08 18.71 32.57 18.07Q32.82 17.74 33.14 17.58Q33.47 17.43 33.86 17.43Q34.28 17.43 34.61 17.6Q34.93 17.76 35.18 18.08Q35.67 18.72 35.67 19.77Q35.67 20.93 35.19 21.58Q34.96 21.89 34.65 22.05Q34.31 22.23 33.87 22.23Q33.44 22.23 33.1 22.05Q32.8 21.89 32.56 21.59ZM59.05 21.59Q58.56 20.95 58.56 19.9Q58.56 18.71 59.05 18.07Q59.3 17.74 59.63 17.58Q59.95 17.43 60.35 17.43Q60.76 17.43 61.1 17.6Q61.42 17.76 61.66 18.08Q62.16 18.72 62.16 19.77Q62.16 20.93 61.67 21.58Q61.44 21.89 61.13 22.05Q60.79 22.23 60.36 22.23Q59.93 22.23 59.59 22.05Q59.28 21.89 59.05 21.59ZM46.88 22.13Q46.7 22.17 46.51 22.17Q46.05 22.17 45.74 21.96Q45.69 21.92 45.64 21.88Q45.53 21.79 45.46 21.68Q45.3 21.44 45.3 21.08Q45.3 20.79 45.43 20.57Q45.81 19.92 47.29 19.92L48.14 19.92L48.14 21.22Q48.11 21.29 48.06 21.36Q47.86 21.69 47.48 21.91Q47.19 22.07 46.88 22.13Z" fill="#787573" fill-opacity="1.000000" fill-rule="evenodd"/>
	<path id="Where to?" d="M39.46 36.25Q38.97 36.49 38.59 36.96L38.59 33.25L37.42 33.25L37.42 43L38.59 43L38.59 38.1Q38.75 37.77 39 37.53Q39.12 37.4 39.26 37.3Q39.39 37.21 39.53 37.15Q39.86 37 40.27 37Q40.97 37 41.3 37.34Q41.3 37.35 41.31 37.35Q41.64 37.71 41.64 38.45L41.64 43L42.82 43L42.82 38.46Q42.81 37.08 42.12 36.47Q41.58 36 40.62 36Q39.98 36 39.46 36.25ZM78.93 39.2Q78.77 39.64 78.76 40.39L79.93 40.39Q79.93 39.43 80.4 38.91L81.09 38.23Q82.08 37.18 82.12 36.11Q82.12 36.08 82.12 36.04Q82.12 35.15 81.7 34.56Q81.59 34.4 81.45 34.27Q81.39 34.21 81.33 34.16Q80.67 33.63 79.58 33.63Q78.59 33.63 77.92 34.09Q77.81 34.17 77.7 34.26Q77.42 34.51 77.25 34.82Q76.98 35.29 76.97 35.92L78.14 35.92Q78.14 35.54 78.31 35.27Q78.4 35.12 78.54 35Q78.58 34.96 78.62 34.93Q78.99 34.65 79.58 34.65Q80.16 34.65 80.5 34.94Q80.55 34.98 80.59 35.03Q80.62 35.06 80.64 35.08Q80.94 35.45 80.94 36.08Q80.94 36.22 80.92 36.36Q80.83 36.89 80.41 37.37L79.58 38.23Q79.09 38.76 78.93 39.2ZM28.24 41.3L28.06 40.08L26.6 33.75L25.38 33.75L27.62 43L28.73 43L30.7 36.26L30.85 35.56L30.99 36.26L32.9 43L34.01 43L36.25 33.75L35.02 33.75L33.59 40.08L33.39 41.32L33.14 40.2L31.36 33.75L30.33 33.75L28.5 40.2L28.24 41.3ZM67.44 36.13L67.44 34.46L66.27 34.46L66.27 36.13L65.02 36.13L65.02 37.03L66.27 37.03L66.27 41.29Q66.27 42.17 66.67 42.65Q66.74 42.74 66.83 42.81Q67.22 43.12 67.85 43.12Q68.29 43.12 68.76 43L68.76 42.04Q68.4 42.12 68.2 42.12Q67.79 42.12 67.62 41.92Q67.62 41.92 67.61 41.91Q67.44 41.71 67.44 41.29L67.44 37.03L68.72 37.03L68.72 36.13L67.44 36.13ZM45.82 42.73Q46.52 43.12 47.43 43.12Q48.45 43.12 49.18 42.65Q49.67 42.33 50.02 41.8L49.3 41.24Q49.02 41.61 48.65 41.85Q48.6 41.88 48.54 41.91Q48.11 42.16 47.49 42.16Q47 42.16 46.61 41.97Q46.3 41.82 46.05 41.54Q45.97 41.45 45.89 41.35Q45.48 40.77 45.45 39.9L50.11 39.9L50.11 39.41Q50.11 37.76 49.36 36.88Q49.14 36.62 48.87 36.44Q48.23 36 47.28 36Q46.92 36 46.59 36.09Q46.16 36.2 45.76 36.45Q45.57 36.58 45.4 36.73Q44.95 37.13 44.67 37.71Q44.28 38.51 44.28 39.54L44.28 39.75Q44.28 41.02 44.88 41.87Q45 42.05 45.16 42.2Q45.46 42.52 45.82 42.73ZM54.21 37.14Q54.52 37.14 54.78 37.18L54.78 36.09Q54.61 36 54.26 36Q53.76 36 53.37 36.21Q52.93 36.44 52.63 36.92L52.61 36.13L51.46 36.13L51.46 43L52.64 43L52.64 38.12Q52.82 37.69 53.14 37.45Q53.55 37.14 54.21 37.14ZM56.99 42.73Q57.68 43.12 58.59 43.12Q59.62 43.12 60.34 42.65Q60.83 42.33 61.18 41.8L60.47 41.24Q60.18 41.61 59.81 41.85Q59.76 41.88 59.71 41.91Q59.28 42.16 58.66 42.16Q58.17 42.16 57.78 41.97Q57.47 41.82 57.21 41.54Q57.13 41.45 57.06 41.35Q56.64 40.77 56.62 39.9L61.27 39.9L61.27 39.41Q61.27 37.76 60.53 36.88Q60.31 36.62 60.04 36.44Q59.39 36 58.45 36Q58.09 36 57.75 36.09Q57.32 36.2 56.93 36.45Q56.74 36.58 56.57 36.73Q56.12 37.13 55.84 37.71Q55.44 38.51 55.44 39.54L55.44 39.75Q55.44 41.02 56.04 41.87Q56.17 42.05 56.32 42.2Q56.62 42.52 56.99 42.73ZM70.05 37.68Q69.66 38.49 69.66 39.5L69.66 39.58Q69.66 40.98 70.32 41.9Q70.42 42.03 70.52 42.15Q70.87 42.53 71.29 42.77Q71.94 43.12 72.79 43.12Q73.54 43.12 74.15 42.83Q74.29 42.76 74.43 42.68Q74.67 42.53 74.87 42.34Q75.27 41.96 75.53 41.44Q75.91 40.64 75.91 39.64L75.91 39.55Q75.91 38.12 75.22 37.19Q75.14 37.08 75.04 36.97Q74.71 36.59 74.29 36.36Q73.63 36 72.77 36Q72.06 36 71.48 36.27Q71.31 36.34 71.16 36.44Q70.98 36.55 70.82 36.68Q70.35 37.08 70.05 37.68ZM46.62 37.1Q46.92 36.96 47.28 36.96Q47.78 36.96 48.13 37.19Q48.31 37.29 48.45 37.46Q48.88 37.95 48.93 38.84L48.93 38.93L45.49 38.93Q45.61 38 46.09 37.48Q46.33 37.23 46.62 37.1ZM57.78 37.1Q58.09 36.96 58.45 36.96Q58.94 36.96 59.3 37.19Q59.47 37.29 59.62 37.46Q60.05 37.95 60.1 38.84L60.1 38.93L56.66 38.93Q56.77 38 57.25 37.48Q57.49 37.23 57.78 37.1ZM71.37 41.47Q70.84 40.78 70.84 39.64Q70.84 38.35 71.37 37.66Q71.64 37.31 72 37.13Q72.34 36.96 72.77 36.96Q73.23 36.96 73.59 37.15Q73.94 37.32 74.2 37.67Q74.74 38.37 74.74 39.5Q74.74 40.76 74.21 41.46Q73.96 41.8 73.62 41.97Q73.26 42.16 72.79 42.16Q72.32 42.16 71.95 41.97Q71.62 41.8 71.37 41.47ZM78.79 42.06Q78.71 42.21 78.71 42.4Q78.71 42.6 78.79 42.76Q78.83 42.82 78.88 42.88Q78.9 42.89 78.92 42.91Q79.09 43.06 79.4 43.06Q79.71 43.06 79.89 42.91Q79.9 42.89 79.92 42.88Q79.98 42.82 80.02 42.75Q80.1 42.6 80.1 42.4Q80.1 42.22 80.02 42.07Q79.98 41.99 79.92 41.93Q79.9 41.9 79.87 41.88Q79.7 41.73 79.4 41.73Q79.1 41.73 78.93 41.88Q78.91 41.9 78.88 41.93Q78.83 41.99 78.79 42.06Z" fill="#090808" fill-opacity="1.000000" fill-rule="evenodd"/>
</svg>
