<svg width="120.000000" height="30.000000" viewBox="0 0 120 30" fill="none" xmlns="http://www.w3.org/2000/svg" xmlns:xlink="http://www.w3.org/1999/xlink">
	<desc>
			Created with Pixso.
	</desc>
	<defs>
		<clipPath id="clip1_33">
			<rect id="Frame" rx="0.000000" width="119.000000" height="29.000000" transform="translate(0.500000 0.500000)" fill="white" fill-opacity="0"/>
		</clipPath>
	</defs>
	<rect id="Frame" rx="0.000000" width="119.000000" height="29.000000" transform="translate(0.500000 0.500000)" fill="#FFFFFF" fill-opacity="0"/>
	<g clip-path="url(#clip1_33)">
		<path id="Vector" d="M17.4 24.48C17.3 25.06 16.81 25.4 16.08 25.28C10.83 24.4 5.86 23.37 0.67 22.22C0.21 22.11 -0.07 21.83 0.01 21.46C0.02 21.41 0.03 21.39 0.04 21.34C0.23 20.49 1.63 20.42 1.94 19.02C3.04 14.02 4.15 9.03 5.26 4.04C5.57 2.63 4.42 1.99 4.62 1.14C4.63 1.09 4.63 1.07 4.64 1.02C4.73 0.65 5.08 0.51 5.51 0.61C8.2 1.21 9.29 1.49 11.99 2.02C12.42 2.1 12.69 2.38 12.62 2.75C12.61 2.79 12.6 2.82 12.59 2.87C12.43 3.73 11.22 3.82 10.94 5.23C9.99 9.98 9.03 14.73 8.08 19.48C7.88 20.49 8.18 21.57 9.3 21.79C10.67 22.06 11.1 22.18 12.47 22.43C15.95 23.01 15.8 18.13 17.33 18.38C17.51 18.41 17.58 18.43 17.76 18.46C18.02 18.51 18.23 18.77 18.15 19.3L17.4 24.48Z" fill="#000000" fill-opacity="1.000000" fill-rule="nonzero"/>
		<path id="Vector" d="M35.15 26.89C34.95 27.69 33 27.73 31.2 27.54C29.24 27.33 28.39 26.85 28.44 25.72C27.51 26.52 26.01 27.07 23.87 26.79C20.39 26.33 18.21 24.42 19.18 21.3C20.13 18.23 23.28 17.07 26.27 17.47C27.59 17.64 28.57 18.08 29.23 18.63C29.24 18.6 29.25 18.58 29.26 18.54C29.88 14.9 30.1 13.32 28.49 13.11C26.35 12.84 26.03 17.04 23.25 16.63C21.93 16.44 21.3 15.52 21.67 14.33C22.44 11.84 25.79 11.29 28.91 11.65C32.57 12.08 35.33 14.79 34.83 18.69C34.54 20.91 34.4 22.01 34.13 24.23C33.86 26.43 35.37 26.04 35.15 26.89ZM28.39 23.48C28.49 22.91 28.54 22.63 28.65 22.06C28.93 20.2 28.3 19.4 27.38 19.29C26.43 19.17 25.53 19.9 25.17 21.15C24.54 23.31 24.77 25.3 26.09 25.47C27.16 25.6 28.1 24.52 28.39 23.48Z" fill="#000000" fill-opacity="1.000000" fill-rule="nonzero"/>
		<path id="Vector" d="M55.75 28.26C55.75 28.31 55.75 28.33 55.75 28.38C55.74 28.76 55.4 28.97 54.93 28.96C52.23 28.91 50.89 28.87 48.19 28.75C47.69 28.73 47.39 28.5 47.41 28.12C47.41 28.07 47.41 28.05 47.42 28C47.46 27.1 48.78 26.78 48.74 25.34C48.7 23.1 48.68 21.98 48.64 19.75C48.61 16.66 48.05 15.48 46.6 15.41C45.19 15.34 44.44 16.51 44.34 18.31C44.18 21.03 44.1 22.39 43.95 25.1C43.86 26.54 45.31 26.99 45.27 27.89C45.26 27.94 45.26 27.97 45.26 28.02C45.24 28.39 44.93 28.59 44.42 28.57C41.51 28.41 40.06 28.31 37.16 28.07C36.65 28.03 36.37 27.79 36.4 27.42C36.4 27.37 36.41 27.34 36.41 27.29C36.48 26.39 37.98 26.14 38.09 24.71C38.29 22.26 38.38 21.03 38.57 18.58C38.69 17.09 36.99 16.76 37.06 15.86C37.07 15.82 37.07 15.81 37.07 15.77C37.1 15.4 37.44 15.24 37.91 15.05C39.78 14.34 40.7 13.98 42.55 13.24C43.37 12.88 43.75 13.44 43.71 14.06C43.68 14.64 43.66 14.94 43.63 15.52C44.59 14.08 46.24 13.35 48.33 13.43C51.93 13.56 54.26 16.62 54.28 20.12C54.4 22.28 54.47 23.36 54.59 25.52C54.67 26.96 55.76 27.35 55.75 28.26Z" fill="#000000" fill-opacity="1.000000" fill-rule="nonzero"/>
		<path id="Vector" d="M75.35 28.02C75.35 27.97 75.35 27.95 75.34 27.9C75.29 26.99 76.6 26.53 76.5 25.1C76.35 22.74 76.27 21.55 76.11 19.19C76.02 17.76 74.69 17.4 74.65 16.66C74.65 16.61 74.64 16.58 74.64 16.53C74.62 16.19 74.9 16.02 75.34 15.77C77.22 14.72 78.15 14.19 80 13.12C80.86 12.61 81.44 13.06 81.5 13.65C81.81 17.31 82.13 20.98 82.45 24.65C82.57 26.08 84.11 26.31 84.19 27.22C84.2 27.27 84.2 27.29 84.2 27.34C84.24 27.71 83.92 27.96 83.42 28.01C80.53 28.26 79.09 28.37 76.19 28.56C75.69 28.59 75.37 28.39 75.35 28.02ZM74.66 8.69C74.55 6.91 75.89 5.49 78.03 5.32C80.13 5.16 81.68 6.36 81.84 8.14C81.99 9.88 80.66 11.38 78.5 11.54C76.32 11.71 74.77 10.43 74.66 8.69Z" fill="#000000" fill-opacity="1.000000" fill-rule="nonzero"/>
		<path id="Vector" d="M104.87 24.42C104.88 24.47 104.89 24.49 104.89 24.54C104.96 24.91 104.66 25.19 104.2 25.26C101.53 25.72 100.2 25.93 97.53 26.32C97.03 26.39 96.69 26.22 96.64 25.85C96.63 25.8 96.63 25.77 96.62 25.73C96.49 24.83 97.73 24.27 97.43 22.87C96.97 20.68 96.74 19.58 96.28 17.39C95.67 14.36 94.9 13.31 93.47 13.51C92.06 13.7 91.55 14.99 91.78 16.79C92.14 19.48 92.31 20.83 92.67 23.53C92.85 24.95 94.37 25.13 94.49 26.02C94.5 26.07 94.5 26.1 94.51 26.15C94.56 26.52 94.28 26.78 93.78 26.84C90.89 27.23 89.45 27.4 86.55 27.72C86.05 27.77 85.72 27.59 85.68 27.21C85.68 27.16 85.68 27.14 85.67 27.09C85.57 26.19 87 25.66 86.84 24.23C86.57 21.79 86.44 20.57 86.17 18.13C86 16.64 84.27 16.64 84.18 15.74C84.17 15.7 84.17 15.68 84.17 15.64C84.13 15.27 84.43 15.05 84.86 14.79C86.56 13.74 87.4 13.21 89.08 12.13C89.82 11.63 90.3 12.1 90.38 12.72C90.45 13.3 90.49 13.6 90.56 14.18C91.24 12.58 92.73 11.56 94.8 11.24C98.36 10.69 101.23 13.26 101.91 16.7C102.43 18.8 102.7 19.85 103.23 21.95C103.56 23.35 104.72 23.53 104.87 24.42Z" fill="#000000" fill-opacity="1.000000" fill-rule="nonzero"/>
		<path id="Vector" d="M118.3 8.06L118.33 8.17C118.49 8.77 117.35 9.57 117.77 11.19L119.67 18.42C120.96 23.36 118.29 26.61 114.47 27.62C110.35 28.69 107.04 28.04 106.47 25.87C106.21 24.9 106.59 23.66 108.05 23.28C111.02 22.5 111.83 26.72 114.1 26.19C115.06 25.96 115.67 24.69 114.84 21.5L114.72 21.06C114.13 21.63 113.31 22.08 112.35 22.33C109.05 23.19 105.25 21.78 104.11 17.44C103.03 13.32 105.45 9.75 108.82 8.86C110.17 8.51 111.4 8.99 112.3 9.4C112.23 8.8 112.59 8 113.42 7.9L117.34 7.4C117.82 7.33 118.18 7.59 118.3 8.06ZM114.02 18.4L112.61 13.01C112.15 11.25 110.69 9.93 109.67 10.2C108.6 10.48 108.36 11.57 108.77 13.49C109.12 15.28 111.31 20.93 113.21 20.55C113.98 20.37 114.32 19.52 114.02 18.4Z" fill="#000000" fill-opacity="1.000000" fill-rule="nonzero"/>
		<path id="Vector" d="M73.9 27.99L73.9 28.12C73.92 28.49 73.64 28.72 73.21 28.74L68.73 28.91C68.23 28.93 67.91 28.63 67.89 28.16L67.88 27.88C66.97 28.79 65.64 29.35 64.11 29.41C60.33 29.55 56.62 27 56.42 21.87C56.24 17.2 59.59 13.91 63.54 13.76C64.85 13.7 65.93 13.98 66.8 14.51L66.64 10.35C66.58 8.87 64.91 8.75 64.88 7.84L64.87 7.75C64.86 7.41 65.13 7.05 65.56 6.91L70.39 5.25C71.28 4.93 71.76 5.1 71.79 5.95L72.54 25.35C72.6 26.79 73.87 27.12 73.9 27.99ZM67.21 25.12L66.97 19.08C66.9 17.07 65.44 15.22 64.01 15.27C62.47 15.33 61.68 16.71 61.68 19.22C61.69 21.85 62.96 27.82 65.31 27.82C66.37 27.81 67.27 26.81 67.21 25.12Z" fill="#000000" fill-opacity="1.000000" fill-rule="nonzero"/>
	</g>
</svg>
