<svg width="120.000000" height="64.000000" viewBox="0 0 120 64" fill="none" xmlns="http://www.w3.org/2000/svg" xmlns:xlink="http://www.w3.org/1999/xlink">
	<desc>
			Created with Pixso.
	</desc>
	<defs>
		<clipPath id="clip1_790">
			<rect id="Frame" rx="0.000000" width="119.000000" height="30.000000" transform="translate(0.500000 16.500000)" fill="white" fill-opacity="0"/>
		</clipPath>
	</defs>
	<rect id="Frame" rx="0.000000" width="119.000000" height="30.000000" transform="translate(0.500000 16.500000)" fill="#FFFFFF" fill-opacity="0"/>
	<g clip-path="url(#clip1_790)">
		<path id="Vector" d="M11.55 18.88L14.18 18.88C15.78 18.65 17.41 18.86 18.9 19.48C20.77 20.58 22.13 22.37 22.69 24.46C23.08 25.55 23.08 25.55 24.02 25.16L24.76 25.16L24.76 16.52L0.02 16.52L0.02 18.04L1.03 18.04C1.47 18.04 1.91 18.13 2.31 18.32C2.71 18.5 3.06 18.77 3.34 19.11C4.28 20.61 4.45 22.3 4.45 31.05C4.45 40.35 4.24 42.63 3.34 43.79C3.12 44.09 2.83 44.33 2.5 44.5C2.17 44.68 1.8 44.77 1.42 44.79C0.02 45.04 0.02 45.02 0.02 45.63C-0.06 45.84 -0.06 46.06 0.02 46.27L15.63 46.27C15.73 46.07 15.79 45.84 15.79 45.62C15.79 45.39 15.73 45.17 15.63 44.97C15.25 44.87 14.87 44.79 14.48 44.74C14.05 44.69 13.64 44.61 13.23 44.49C12.65 44.07 12.19 43.51 11.89 42.86C11.6 42.21 11.48 41.5 11.55 40.79C11.32 39.29 11.2 36.53 11.2 34.26L11.2 32.46L12.12 32.46C13.27 32.43 14.42 32.55 15.54 32.83C16.07 33.15 16.53 33.59 16.87 34.11C17.21 34.63 17.43 35.21 17.52 35.83L17.73 36.53L19.13 36.53L19.13 26.46L17.84 26.46L17.64 27.44C17.55 28.06 17.31 28.66 16.95 29.18C16.58 29.7 16.1 30.13 15.54 30.44C14.99 30.6 14.42 30.64 13.85 30.55L11.2 30.55L11.2 28.09C11.2 25.55 11.34 20.18 11.43 19.34L11.55 18.88ZM119.47 36.92C118.38 35.19 116.68 33.92 114.69 33.35C113.17 32.88 111.77 32.11 110.56 31.07C110.29 30.82 110.09 30.5 109.97 30.14C109.86 29.79 109.83 29.42 109.9 29.05C109.9 28.33 110.19 27.65 110.7 27.14C111.05 26.78 111.49 26.52 111.98 26.39C112.47 26.25 112.98 26.26 113.47 26.39C114.48 26.67 115.39 27.22 116.11 27.97C116.83 28.73 117.33 29.66 117.55 30.66C117.92 31.69 117.97 31.69 118.63 31.42L119.05 31.26L119.05 25.59L118.75 25.46C116.48 24.67 114.07 24.35 111.67 24.5C109.6 24.55 107.63 25.36 106.14 26.78C105.46 27.4 104.93 28.16 104.58 29.01C104.24 29.86 104.08 30.77 104.13 31.69C104.14 33.08 104.71 34.42 105.7 35.42C106.8 36.48 108.14 37.26 109.62 37.69C113.19 39.08 114.23 39.97 114.23 41.58C114.25 42.26 114.03 42.93 113.61 43.47C113.19 44.01 112.59 44.4 111.92 44.56C111.12 44.74 110.29 44.74 109.48 44.56C108.43 44.16 107.49 43.51 106.74 42.68C105.99 41.84 105.45 40.84 105.17 39.76L104.87 39.03L104.45 39.03C104.26 39.05 104.06 39.1 103.88 39.17L103.65 39.17L103.65 45.63L104.04 45.63C105.6 46.14 107.2 46.49 108.83 46.68L111.14 46.68C112.14 46.75 113.15 46.66 114.12 46.4C115.35 46.18 116.5 45.64 117.45 44.84C118.41 44.05 119.13 43.02 119.56 41.85C119.83 41.21 119.97 40.51 119.97 39.81C120.06 38.82 119.89 37.82 119.47 36.92ZM97.74 25.16C96.36 24.59 94.87 24.31 93.37 24.35C91.88 24.38 90.4 24.73 89.05 25.37C87.78 25.98 86.65 26.85 85.74 27.92C84.83 28.99 84.16 30.23 83.77 31.57C83.27 33.04 83.06 34.58 83.15 36.12C83.13 36.96 83.2 37.8 83.35 38.63C83.73 40.65 84.72 42.52 86.2 43.98C87.68 45.43 89.57 46.41 91.63 46.77C92.97 46.93 94.33 46.93 95.67 46.77C97.06 46.53 98.39 46.02 99.59 45.29C100.58 44.74 101.42 43.96 102.03 43.02C101.99 42.87 101.92 42.73 101.83 42.61C101.73 42.49 101.61 42.38 101.48 42.31C101.22 42.4 100.97 42.53 100.74 42.7C99.59 43.44 98.24 43.82 96.87 43.77C95.96 43.83 95.04 43.69 94.19 43.36C93.34 43.03 92.58 42.51 91.96 41.85C91.47 41.41 91.07 40.89 90.78 40.31C90.06 38.89 89.68 37.34 89.65 35.76L89.65 34.87L102.42 34.87L102.42 34.42C102.45 33.96 102.45 33.51 102.42 33.05C102.42 31.45 101.98 29.87 101.16 28.48C100.34 27.1 99.16 25.95 97.74 25.16ZM91.31 33.03L89.7 33.03L89.7 31.69C90.23 28.25 91.54 26.21 93.15 26.21C94.77 26.21 95.46 28.23 95.76 31.94L95.76 32.98L94.38 32.98L91.31 33.03ZM58.15 24.41C57.35 24.38 56.56 24.54 55.84 24.89C54.29 25.63 53.03 26.88 52.27 28.41L51.97 28.96L51.97 24.41L51.86 24.41C51.58 24.41 43.05 26.09 42.77 26.21C42.49 26.32 42.59 26.34 42.59 26.75C42.59 27.16 42.59 27.23 42.77 27.25L43.67 27.44C43.92 27.44 44.17 27.5 44.39 27.62C44.62 27.73 44.81 27.9 44.96 28.09C45.54 28.85 45.65 30.16 45.65 35.78C45.77 38.31 45.66 40.85 45.33 43.36C45.25 43.73 45.06 44.08 44.77 44.35C44.49 44.61 44.13 44.78 43.74 44.83L42.95 44.99L42.65 44.99L42.65 45.63C42.57 45.84 42.57 46.08 42.65 46.29L55.54 46.29L55.54 45.63C55.59 45.41 55.59 45.19 55.54 44.97C54.77 44.94 54 44.84 53.24 44.68C52.83 44.46 52.49 44.13 52.27 43.73C52.05 43.32 51.96 42.86 52.02 42.4C51.83 41.08 51.74 37.22 51.79 34.26C51.83 31.3 51.79 31.12 52.04 30.91C52.81 30.33 53.77 30.03 54.74 30.07C55.65 30.09 56.55 30.32 57.37 30.73C57.65 30.89 57.95 31 58.27 31.07C58.27 31.07 60.57 25.57 60.57 25.32C60.28 24.98 59.9 24.72 59.48 24.56C59.05 24.4 58.6 24.35 58.15 24.41ZM42.61 33.96C42.53 32.34 42.05 30.75 41.23 29.35C40.4 27.94 39.25 26.74 37.86 25.87C36.21 24.99 34.37 24.5 32.5 24.45C30.62 24.4 28.76 24.78 27.07 25.57C24.67 26.82 22.86 28.94 22.02 31.48C21.15 34.33 21.15 37.37 22.02 40.22C22.47 41.77 23.32 43.19 24.48 44.33C25.93 45.73 27.8 46.62 29.81 46.88C31.1 46.99 32.4 46.99 33.68 46.88C34.16 46.81 34.63 46.71 35.09 46.59C36.97 46.07 38.66 45.03 39.96 43.6C41.26 42.17 42.12 40.41 42.45 38.51C42.68 37.01 42.73 35.48 42.61 33.96ZM33.02 45.33C30.71 46.02 28.98 43.81 28.4 39.17C28.19 36.74 28.19 34.3 28.4 31.87C28.87 28.14 30.04 26.25 31.86 26.25C32.23 26.23 32.6 26.29 32.93 26.44C33.27 26.59 33.57 26.81 33.8 27.09C35.34 28.62 36.11 31.64 36.11 36.19C36.3 38.77 35.89 41.35 34.91 43.74C34.47 44.44 33.8 44.96 33.02 45.22L33.02 45.33ZM74.52 24.87C73.87 24.78 73.21 24.78 72.56 24.87C71.31 24.86 70.08 25.13 68.94 25.64L68.23 25.93L68.23 21C68.35 19.33 68.35 17.66 68.23 16C67.95 16 59.14 17.66 59 17.72C58.94 17.89 58.94 18.08 59 18.25C59 18.72 59 18.7 60.04 18.93C60.33 18.99 60.61 19.1 60.87 19.25C61.32 19.66 61.62 20.22 61.72 20.82C61.99 22.55 62.07 24.3 61.98 26.05L61.98 46.02L62.6 46.15C63.52 46.36 66.13 46.79 66.98 46.88C68.69 47.02 70.4 47.02 72.1 46.88C73.99 46.69 75.79 46 77.31 44.87C78.83 43.74 80.01 42.23 80.73 40.49C81.15 39.37 81.44 38.21 81.6 37.03C81.74 35.43 81.68 33.82 81.44 32.23C81.19 30.45 80.4 28.79 79.16 27.47C77.92 26.16 76.3 25.25 74.52 24.87ZM68.48 44.95C68.48 44.65 68.25 34.69 68.3 30.71L68.3 27.59L68.97 27.44C69.42 27.37 69.87 27.37 70.33 27.44C70.82 27.39 71.33 27.5 71.76 27.75C72.62 28.34 73.33 29.11 73.85 30.01C74.36 30.91 74.66 31.91 74.73 32.94C74.9 34.6 74.9 36.26 74.73 37.92C74.59 40.33 73.65 42.62 72.05 44.45C71.6 44.87 71.03 45.16 70.42 45.27C69.95 45.35 69.48 45.35 69.01 45.27C68.57 45.27 68.57 45.13 68.57 44.95L68.48 44.95Z" fill="#000000" fill-opacity="1.000000" fill-rule="nonzero"/>
	</g>
</svg>
