<svg width="120.000000" height="64.000000" viewBox="0 0 120 64" fill="none" xmlns="http://www.w3.org/2000/svg" xmlns:xlink="http://www.w3.org/1999/xlink">
	<desc>
			Created with Pixso.
	</desc>
	<defs>
		<clipPath id="clip1_722">
			<rect id="Frame" rx="0.000000" width="119.000000" height="63.000000" transform="translate(0.500000 0.500000)" fill="white" fill-opacity="0"/>
		</clipPath>
	</defs>
	<rect id="Frame" rx="0.000000" width="119.000000" height="63.000000" transform="translate(0.500000 0.500000)" fill="#FFFFFF" fill-opacity="0"/>
	<g clip-path="url(#clip1_722)">
		<path id="Vector" d="M67.61 0.64C61.84 2.38 58.04 8.92 58.61 16.15C59.07 21.99 61.32 25.63 69.57 33.89C78.24 42.58 79.97 45.49 79.97 51.45C79.98 66.98 64.87 63.64 61.7 47.41C60.88 43.2 60.39 41.93 59.67 42.16C58.59 42.49 58.7 63.26 59.78 63.26C60.26 63.26 60.66 63.01 60.66 62.71C60.66 59.99 63.32 59.52 66.79 61.62C78.45 68.67 90.67 55.95 86.57 41.02C85.11 35.7 82.78 32.46 74.5 24.22C68.18 17.94 66.35 15.09 66.01 10.98C65.53 5.42 67.71 2.26 71.8 2.58C76.93 2.97 80.21 8.01 81.71 17.78C82.2 20.97 82.39 21.45 83.12 21.45C83.94 21.45 83.97 21.05 84.09 10.95C84.19 1.14 84.15 0.45 83.43 0.46C83 0.46 82.38 1.04 82.01 1.78C81.1 3.61 79.91 3.63 77.07 1.86C74.23 0.1 70.86 -0.33 67.61 0.64ZM0.08 1.18C0.08 1.64 0.62 2.1 1.54 2.41C3.61 3.11 3.3 2.01 10.6 34.27L17.26 63.71L19 63.59L20.75 63.47L21.71 58.77C22.24 56.2 23.97 47.57 25.56 39.6C28.87 23.01 28.9 22.92 29.29 24.92C29.44 25.71 30.71 31.49 32.11 37.77C33.5 44.05 35.35 52.4 36.21 56.33L37.78 63.47L39.17 63.59C40.91 63.75 39.15 70.66 51.27 16.15C53.88 4.45 54.24 3.43 56.12 2.59C59.57 1.05 58.21 0.45 51.29 0.45C45.38 0.45 44.97 0.5 44.97 1.22C44.97 1.79 45.4 2.06 46.6 2.27C50.85 3.01 50.82 4.2 46.01 26.5C43.95 36.06 42.22 43.93 42.18 43.97C42.13 44.02 41.25 39.98 40.22 35C39.18 30.02 37.48 21.81 36.43 16.76C33.79 4.11 33.88 2.91 37.48 2.24C38.45 2.06 38.87 1.75 38.87 1.21C38.87 0.49 38.38 0.45 29.93 0.45C21.62 0.45 21 0.5 21 1.18C21 1.65 21.55 2.1 22.51 2.43C24.26 3.02 24.32 3.17 26.08 11.4C27.13 16.3 27.19 17.1 26.72 19.35C26.02 22.79 21.88 43.7 21.84 44.03C21.77 44.7 13.63 6.63 13.61 5.54C13.58 3.89 14.6 2.61 16.21 2.28C17.1 2.1 17.51 1.77 17.51 1.23C17.51 0.49 17.1 0.45 8.8 0.45C0.7 0.45 0.08 0.5 0.08 1.18ZM100.75 1.22C100.75 1.82 101.26 2.11 102.94 2.49C106.13 3.21 105.98 1.8 105.98 30.02C105.98 60.61 105.88 61.22 101.18 61.22C95.81 61.22 94.33 57.73 98.34 54.52C102.33 51.33 102.58 47.27 98.88 45.58C92.92 42.86 88.26 50.38 91.57 57.38C95.64 66 109.71 65.6 113.77 56.75C115.34 53.33 115.55 49.92 115.56 26.83C115.57 2.48 115.49 3.17 118.19 2.49C119.46 2.16 119.92 1.84 119.92 1.25C119.92 0.48 119.57 0.45 110.34 0.45C101.21 0.45 100.75 0.49 100.75 1.22Z" fill="#000000" fill-opacity="1.000000" fill-rule="evenodd"/>
	</g>
</svg>
