<svg width="77.000000" height="17.000000" viewBox="0 0 77 17" fill="none" xmlns="http://www.w3.org/2000/svg" xmlns:xlink="http://www.w3.org/1999/xlink">
	<desc>
			Created with Pixso.
	</desc>
	<defs>
		<clipPath id="clip1_147">
			<rect id="Frame" rx="0.000000" width="16.000000" height="15.000000" transform="translate(0.500000 1.500000)" fill="white" fill-opacity="0"/>
		</clipPath>
	</defs>
	<rect id="Frame" rx="0.000000" width="16.000000" height="15.000000" transform="translate(0.500000 1.500000)" fill="#FFFFFF" fill-opacity="0"/>
	<g clip-path="url(#clip1_147)">
		<path id="Vector" d="M14.06 8.21C14.06 4.71 11.21 1.88 7.7 1.88C4.19 1.88 1.34 4.71 1.34 8.21C1.34 11.7 4.19 14.53 7.7 14.53C11.21 14.53 14.06 11.7 14.06 8.21Z" stroke="#000000" stroke-opacity="1.000000" stroke-width="2.000000" stroke-linejoin="round"/>
		<path id="Vector" d="M15.65 16.11L12.19 12.67" stroke="#000000" stroke-opacity="1.000000" stroke-width="2.000000" stroke-linejoin="round" stroke-linecap="round"/>
	</g>
	<path id="Search" d="M70.35 3.7Q69.75 3.99 69.28 4.57L69.28 0L67.84 0L67.84 12L69.28 12L69.28 5.97Q69.48 5.57 69.78 5.26Q69.94 5.11 70.11 4.99Q70.27 4.88 70.43 4.8Q70.85 4.61 71.35 4.61Q72.21 4.61 72.62 5.04Q72.62 5.05 72.62 5.05Q73.03 5.49 73.04 6.4L73.04 12L74.49 12L74.49 6.41Q74.47 4.71 73.63 3.97Q72.96 3.39 71.78 3.39Q70.99 3.39 70.35 3.7ZM28.3 5.56Q29.17 6.37 31.1 6.92Q32.64 7.37 33.23 7.83Q33.43 7.99 33.57 8.19Q33.82 8.58 33.82 9.12Q33.82 9.59 33.62 9.95Q33.46 10.23 33.18 10.44Q32.55 10.92 31.36 10.92Q30.09 10.92 29.33 10.33Q29.01 10.08 28.82 9.75Q28.57 9.3 28.57 8.7L27.06 8.7Q27.06 9.3 27.26 9.82Q27.39 10.16 27.61 10.47Q27.61 10.48 27.62 10.49Q28.17 11.26 29.17 11.7Q29.37 11.79 29.57 11.86Q30.41 12.15 31.36 12.15Q33.17 12.15 34.25 11.32Q34.76 10.92 35.03 10.39Q35.32 9.82 35.32 9.1Q35.32 8.26 34.95 7.62Q34.94 7.61 34.94 7.6Q34.55 6.96 33.75 6.48Q32.95 6 31.53 5.6Q30.11 5.2 29.52 4.72Q29.16 4.42 29.02 4.04Q28.93 3.81 28.93 3.54Q28.93 3 29.17 2.61Q29.32 2.37 29.55 2.19Q30.17 1.7 31.28 1.7Q32.48 1.7 33.14 2.29Q33.31 2.45 33.44 2.64Q33.79 3.16 33.79 3.91L35.3 3.91Q35.3 3.43 35.17 2.99Q35.04 2.56 34.8 2.17Q34.68 1.99 34.55 1.83Q34.09 1.27 33.37 0.92Q32.46 0.46 31.28 0.46Q29.68 0.46 28.64 1.23Q28.56 1.28 28.49 1.34Q27.91 1.82 27.64 2.44Q27.42 2.95 27.42 3.57Q27.42 4.15 27.63 4.64Q27.85 5.15 28.3 5.56ZM38.55 11.67Q39.4 12.15 40.53 12.15Q41.79 12.15 42.68 11.57Q43.28 11.18 43.71 10.52L42.83 9.83Q42.48 10.28 42.03 10.58Q41.97 10.62 41.9 10.66Q41.37 10.97 40.6 10.97Q40.01 10.97 39.52 10.73Q39.14 10.54 38.83 10.2Q38.73 10.09 38.64 9.97Q38.12 9.25 38.1 8.18L43.82 8.18L43.82 7.58Q43.82 5.56 42.91 4.47Q42.64 4.15 42.3 3.92Q41.51 3.39 40.35 3.39Q39.91 3.39 39.49 3.49Q38.96 3.63 38.48 3.94Q38.24 4.1 38.03 4.28Q37.48 4.77 37.13 5.49Q36.65 6.48 36.65 7.74L36.65 8Q36.65 9.57 37.39 10.61Q37.54 10.83 37.73 11.02Q38.1 11.41 38.55 11.67ZM50.51 11.1Q50.59 11.75 50.71 12L52.23 12L52.23 11.87Q51.93 11.18 51.93 10.02L51.93 6.13Q51.91 5.2 51.47 4.56Q51.3 4.32 51.07 4.12Q51.06 4.11 51.06 4.1Q50.23 3.39 48.78 3.39Q47.87 3.39 47.1 3.72Q47.1 3.73 47.09 3.73Q46.33 4.07 45.88 4.65Q45.88 4.66 45.87 4.66Q45.48 5.17 45.43 5.72Q45.42 5.8 45.42 5.89L46.88 5.89Q46.88 5.72 46.93 5.57Q47.04 5.21 47.4 4.94Q47.45 4.9 47.51 4.87Q48 4.55 48.7 4.55Q49.56 4.55 50.02 4.98Q50.03 4.99 50.03 5Q50.13 5.1 50.21 5.21Q50.49 5.62 50.49 6.21L50.49 6.87L49.08 6.87Q47.26 6.87 46.26 7.6Q45.83 7.91 45.58 8.33Q45.25 8.89 45.25 9.65Q45.25 10.22 45.47 10.69Q45.67 11.11 46.05 11.44Q46.21 11.59 46.39 11.7Q47.1 12.15 48.1 12.15Q48.72 12.15 49.25 11.95Q49.94 11.69 50.51 11.1ZM57.57 4.78Q57.96 4.78 58.28 4.84L58.28 3.5Q58.07 3.39 57.64 3.39Q57.03 3.39 56.54 3.64Q56 3.92 55.63 4.52L55.6 3.54L54.2 3.54L54.2 12L55.64 12L55.64 6Q55.86 5.47 56.26 5.17Q56.77 4.78 57.57 4.78ZM63.69 10.81Q63.31 10.97 62.85 10.97Q62.13 10.97 61.62 10.64Q61.35 10.46 61.14 10.18Q60.53 9.39 60.53 7.93L60.53 7.66Q60.53 6.16 61.14 5.37Q61.37 5.07 61.66 4.88Q62.16 4.57 62.85 4.57Q63.35 4.57 63.76 4.78Q64.01 4.9 64.23 5.1Q64.43 5.3 64.57 5.53Q64.81 5.93 64.85 6.45L66.21 6.45Q66.18 5.61 65.8 4.96Q65.57 4.56 65.21 4.24Q64.94 3.99 64.63 3.82Q63.86 3.39 62.85 3.39Q61.75 3.39 60.94 3.86Q60.89 3.89 60.84 3.92Q60.58 4.08 60.35 4.29Q59.85 4.75 59.54 5.41Q59.09 6.37 59.09 7.6L59.09 7.85Q59.09 9.78 60.04 10.92Q60.07 10.96 60.11 11Q60.45 11.38 60.86 11.64Q61.7 12.15 62.85 12.15Q63.27 12.15 63.66 12.06Q64.08 11.96 64.48 11.76Q65.1 11.45 65.52 10.96Q65.62 10.84 65.71 10.71Q66.09 10.18 66.18 9.6Q66.21 9.47 66.21 9.33L64.85 9.33Q64.82 9.62 64.71 9.87Q64.55 10.23 64.21 10.5Q63.97 10.7 63.69 10.81ZM39.53 4.74Q39.9 4.57 40.35 4.57Q40.95 4.57 41.39 4.84Q41.61 4.98 41.78 5.18Q42.32 5.78 42.38 6.89L42.38 7L38.14 7Q38.28 5.85 38.88 5.21Q39.17 4.9 39.53 4.74ZM48.81 10.84Q48.57 10.89 48.32 10.89Q47.7 10.89 47.28 10.61Q47.21 10.56 47.15 10.51Q47.01 10.39 46.91 10.24Q46.7 9.92 46.7 9.45Q46.7 9.05 46.87 8.76Q47.38 7.89 49.35 7.89L50.49 7.89L50.49 9.63Q50.44 9.72 50.38 9.81Q50.11 10.25 49.6 10.54Q49.22 10.76 48.81 10.84Z" fill="#FFFFFF" fill-opacity="1.000000" fill-rule="evenodd"/>
</svg>
