<svg width="120.000000" height="33.149414" viewBox="0 0 120 33.1494" fill="none" xmlns="http://www.w3.org/2000/svg" xmlns:xlink="http://www.w3.org/1999/xlink">
	<desc>
			Created with Pixso.
	</desc>
	<defs/>
	<path id="path1139" d="M0 8.06L7.13 8.06L11.29 18.66L15.5 8.06L22.45 8.06L11.99 33.14L4.99 33.14L7.86 26.5L0 8.06Z" fill="#000000" fill-opacity="1.000000" fill-rule="nonzero"/>
	<path id="path1141" d="M29.69 7.64C24.33 7.64 20.94 12.43 20.94 17.21C20.94 22.58 24.66 26.83 29.59 26.83C33.27 26.83 34.66 24.6 34.66 24.6L34.66 26.34L40.89 26.34L40.89 8.06L34.66 8.06L34.66 9.73C34.66 9.73 33.11 7.64 29.69 7.64ZM31.02 13.52C33.49 13.52 34.77 15.47 34.77 17.23C34.77 19.12 33.4 20.98 31.02 20.98C29.04 20.98 27.26 19.37 27.26 17.31C27.26 15.21 28.69 13.52 31.02 13.52Z" fill="#000000" fill-opacity="1.000000" fill-rule="nonzero"/>
	<path id="path1145" d="M43.03 26.34L43.03 0L49.55 0L49.55 9.79C49.55 9.79 51.09 7.65 54.33 7.65C58.3 7.65 60.62 10.59 60.62 14.79L60.62 26.34L54.15 26.34L54.15 16.37C54.15 14.95 53.47 13.58 51.93 13.58C50.36 13.58 49.55 14.97 49.55 16.37L49.55 26.34L43.03 26.34Z" fill="#000000" fill-opacity="1.000000" fill-rule="nonzero"/>
	<path id="path1147" d="M71.72 7.65C65.58 7.65 61.92 12.3 61.92 17.28C61.92 22.96 66.35 26.83 71.75 26.83C76.98 26.83 81.55 23.13 81.55 17.38C81.55 11.08 76.76 7.65 71.72 7.65ZM71.78 13.57C73.95 13.57 75.45 15.37 75.45 17.29C75.45 18.93 74.05 20.95 71.78 20.95C69.7 20.95 68.14 19.28 68.14 17.27C68.14 15.33 69.44 13.57 71.78 13.57Z" fill="#000000" fill-opacity="1.000000" fill-rule="nonzero"/>
	<path id="path1153" d="M92.4 7.65C86.26 7.65 82.6 12.3 82.6 17.28C82.6 22.96 87.03 26.83 92.42 26.83C97.65 26.83 102.23 23.13 102.23 17.38C102.23 11.08 97.44 7.65 92.4 7.65ZM92.46 13.57C94.63 13.57 96.13 15.37 96.13 17.29C96.13 18.93 94.73 20.95 92.46 20.95C90.38 20.95 88.82 19.28 88.82 17.27C88.82 15.33 90.11 13.57 92.46 13.57Z" fill="#000000" fill-opacity="1.000000" fill-rule="nonzero"/>
	<path id="path1155" d="M111.69 22.42C111.69 24.8 109.76 26.73 107.37 26.73C104.98 26.73 103.04 24.8 103.04 22.42C103.04 20.04 104.98 18.11 107.37 18.11C109.76 18.11 111.69 20.04 111.69 22.42Z" fill="#000000" fill-opacity="1.000000" fill-rule="evenodd"/>
	<path id="path1157" d="M113.11 16.53L105.33 16.53L112.24 0L120 0L113.11 16.53Z" fill="#000000" fill-opacity="1.000000" fill-rule="nonzero"/>
</svg>
